<?xml version="1.0" standalone="no"?>
<!DOCTYPE svg PUBLIC "-//W3C//DTD SVG 20010904//EN"
 "http://www.w3.org/TR/2001/REC-SVG-20010904/DTD/svg10.dtd">
<svg version="1.0" xmlns="http://www.w3.org/2000/svg"
 width="196.000000pt" height="196.000000pt" viewBox="0 0 196.000000 196.000000"
 preserveAspectRatio="xMidYMid meet">
<metadata>
Created by potrace 1.11, written by Peter Selinger 2001-2013
</metadata>
<g transform="translate(0.000000,196.000000) scale(0.100000,-0.100000)"
fill="#000000" stroke="none">
<path d="M840 1951 c0 -6 -3 -10 -7 -9 -5 1 -28 -2 -53 -7 -25 -5 -48 -8 -52
-7 -5 1 -8 -2 -8 -6 0 -5 -6 -9 -12 -10 -26 -1 -58 -11 -102 -30 -24 -11 -48
-17 -52 -14 -4 4 -4 1 0 -5 4 -8 2 -13 -5 -13 -17 0 -141 -76 -173 -105 -14
-13 -26 -22 -26 -20 0 5 -75 -70 -112 -113 -31 -35 -115 -153 -117 -164 0 -5
-14 -36 -31 -69 -16 -34 -27 -66 -24 -70 3 -5 0 -9 -5 -9 -6 0 -11 -11 -11
-23 0 -13 -3 -27 -7 -31 -4 -3 -9 -17 -11 -29 -2 -12 -5 -29 -7 -37 -2 -8 -4
-25 -4 -38 -1 -14 -5 -21 -12 -16 -7 4 -7 -1 1 -16 9 -16 9 -20 0 -15 -15 10
-12 -224 4 -244 9 -12 8 -13 -4 -6 -13 8 -13 7 -1 -8 7 -9 11 -17 8 -17 -3 0
0 -19 7 -43 7 -24 12 -51 10 -60 -1 -9 2 -17 7 -17 5 0 9 -11 9 -25 0 -14 4
-25 8 -25 5 0 9 -7 9 -15 0 -19 45 -119 56 -123 4 -2 7 -12 7 -23 0 -10 4 -19
8 -19 5 0 15 -12 23 -27 8 -16 16 -30 19 -33 3 -3 17 -21 31 -40 53 -70 162
-173 204 -192 14 -6 25 -14 25 -18 0 -11 77 -50 85 -42 5 4 5 2 2 -4 -7 -13
169 -85 213 -87 14 -1 28 -6 32 -11 12 -17 416 -13 443 4 6 3 34 12 63 19 29
7 69 21 90 31 20 10 40 16 43 14 4 -2 10 3 13 12 3 8 10 12 16 9 5 -3 10 -3
10 2 0 4 15 14 33 22 17 8 34 17 37 21 3 3 21 17 40 30 53 37 56 40 126 110
56 56 105 119 151 195 14 23 67 127 68 135 5 26 19 77 23 85 7 10 8 16 20 75
11 54 8 420 -4 428 -5 4 -9 14 -9 22 0 8 -6 29 -15 45 -9 17 -15 37 -15 45 0
8 -2 17 -5 20 -3 3 -16 30 -30 60 -14 30 -27 57 -30 60 -3 3 -11 17 -19 32 -8
15 -22 37 -33 47 -10 11 -18 23 -18 26 0 15 -126 143 -180 184 -19 14 -37 28
-40 31 -8 8 -43 29 -70 42 -14 7 -27 15 -30 19 -4 5 -34 19 -50 24 -3 1 -23 9
-44 18 -22 10 -51 20 -65 24 -14 3 -30 8 -36 12 -5 3 -12 6 -15 6 -52 8 -91
19 -96 26 -3 6 -11 5 -20 -2 -9 -7 -14 -8 -14 -1 0 7 -44 11 -125 11 -94 0
-124 -3 -118 -12 4 -7 0 -6 -10 2 -11 9 -17 10 -17 2z"/>
</g>
</svg>
