<svg id="Layer_1" data-name="Layer 1" xmlns="http://www.w3.org/2000/svg" viewBox="0 0 561.5 198.43"><defs><style>.cls-1,.cls-5{fill:#002dd4;}.cls-1{opacity:0.1;}.cls-2{fill:#fffa38;}.cls-3{fill:#61e1dd;}.cls-4{fill:#459af6;}.cls-6{fill:#1d1d1b;}.cls-7{fill:#fff;}.cls-8{font-size:24px;font-family:Inter-Regular_400_0_, "Inter Regular 400 0 ";letter-spacing:0.95em;}.cls-9{fill:none;stroke:#e5eafb;stroke-miterlimit:10;}</style></defs><rect class="cls-1" x="189.92" width="181.42" height="198.43" rx="11.34"/><rect class="cls-2" x="203.39" y="54.25" width="153.27" height="130.39"/><rect class="cls-3" x="202.76" y="54.25" width="54.77" height="86.66"/><rect class="cls-1" width="181.42" height="198.43" rx="11.34"/><rect class="cls-1" x="380.08" width="181.42" height="198.43" rx="11.34"/><path d="M13.05,17.14H11.57l2.26-6.55h1.78l2.26,6.55H16.38l-.48-1.49H13.53Zm.84-2.57h1.66l-.81-2.48h-.05Z"/><path d="M22.69,10.59h1.39v4.26a2.21,2.21,0,0,1-1.29,2.08,3.53,3.53,0,0,1-2.85,0,2.21,2.21,0,0,1-1.29-2.08V10.59H20v4.14a1.25,1.25,0,0,0,.36.92,1.44,1.44,0,0,0,1.93,0,1.25,1.25,0,0,0,.36-.92Z"/><path d="M26.34,17.14H24.86l2.26-6.55H28.9l2.26,6.55H29.68l-.49-1.49H26.83Zm.84-2.57h1.66L28,12.09H28Z"/><path d="M34,19V12.23h1.34v.83h.06a1.87,1.87,0,0,1,.26-.41,1.41,1.41,0,0,1,.45-.34,1.47,1.47,0,0,1,.69-.14,1.81,1.81,0,0,1,1,.28,1.88,1.88,0,0,1,.72.84,3.06,3.06,0,0,1,.28,1.4,3.22,3.22,0,0,1-.27,1.39,2,2,0,0,1-.72.85,1.84,1.84,0,0,1-1,.29,1.42,1.42,0,0,1-1.12-.46,2.41,2.41,0,0,1-.27-.41h0V19Zm1.33-4.29a1.86,1.86,0,0,0,.27,1.05.93.93,0,0,0,1.53,0,1.85,1.85,0,0,0,.27-1,1.8,1.8,0,0,0-.27-1,.85.85,0,0,0-.77-.4.87.87,0,0,0-.76.39A1.82,1.82,0,0,0,35.34,14.69Z"/><path d="M41.94,17.24a2.63,2.63,0,0,1-1.3-.31,2,2,0,0,1-.84-.88,3.12,3.12,0,0,1,0-2.67,2.14,2.14,0,0,1,.82-.89,2.36,2.36,0,0,1,1.26-.32,2.46,2.46,0,0,1,1.17.27,2,2,0,0,1,.83.83,2.78,2.78,0,0,1,.31,1.39V15H40.85a1.2,1.2,0,0,0,.3.86,1.07,1.07,0,0,0,.81.32,1.22,1.22,0,0,0,.59-.14.79.79,0,0,0,.35-.43l1.26.08a1.73,1.73,0,0,1-.73,1.1A2.57,2.57,0,0,1,41.94,17.24Zm-1.09-3h2.06a1,1,0,0,0-.28-.72,1.06,1.06,0,0,0-1.47,0A1,1,0,0,0,40.85,14.19Z"/><path d="M45.08,17.14V12.23H46.4v.86h.05a1.23,1.23,0,0,1,.45-.69,1.16,1.16,0,0,1,.73-.24,2,2,0,0,1,.43.05v1.21l-.27-.06-.31,0a1,1,0,0,0-.74.29.94.94,0,0,0-.3.73v2.78Z"/><path d="M52.24,17.23a1.84,1.84,0,0,1-1.16-.36,1.34,1.34,0,0,1-.47-1.1,1.3,1.3,0,0,1,.26-.86,1.47,1.47,0,0,1,.68-.46,3.67,3.67,0,0,1,.91-.19,7.46,7.46,0,0,0,.91-.14c.19,0,.28-.15.28-.3v0a.6.6,0,0,0-.19-.47.81.81,0,0,0-.54-.17,1,1,0,0,0-.59.16.73.73,0,0,0-.28.41l-1.26-.11a1.64,1.64,0,0,1,.7-1.06,2.44,2.44,0,0,1,1.43-.39,2.89,2.89,0,0,1,1,.17,1.69,1.69,0,0,1,.77.54,1.49,1.49,0,0,1,.29.95v3.31H53.72v-.68h0a1.45,1.45,0,0,1-.54.56A1.71,1.71,0,0,1,52.24,17.23Zm.39-.94a1,1,0,0,0,.74-.26.84.84,0,0,0,.29-.64v-.53a.86.86,0,0,1-.25.1l-.36.07-.34.05a1.46,1.46,0,0,0-.58.21.49.49,0,0,0-.21.43.49.49,0,0,0,.2.43A.81.81,0,0,0,52.63,16.29Z"/><path d="M57.88,17.22a1.84,1.84,0,0,1-1-.29,2,2,0,0,1-.72-.85,3.22,3.22,0,0,1-.27-1.39,3.2,3.2,0,0,1,.28-1.4,1.88,1.88,0,0,1,.72-.84,1.81,1.81,0,0,1,1-.28,1.41,1.41,0,0,1,.69.14,1.31,1.31,0,0,1,.45.34,1.87,1.87,0,0,1,.26.41h0V10.59h1.36v6.55H59.33v-.79h-.06a1.61,1.61,0,0,1-.27.41,1.42,1.42,0,0,1-1.12.46Zm.43-1.08a.88.88,0,0,0,.76-.4,1.86,1.86,0,0,0,.27-1.05,1.82,1.82,0,0,0-.27-1,.87.87,0,0,0-.76-.39.85.85,0,0,0-.77.4,1.8,1.8,0,0,0-.27,1,1.85,1.85,0,0,0,.27,1A.87.87,0,0,0,58.31,16.14Z"/><path d="M66.36,12.23l-1.72,4.91H63.11l-1.72-4.91h1.44l1,3.51h0l1-3.51Z"/><path d="M67.74,11.6a.77.77,0,0,1-.52-.2.68.68,0,0,1,0-1,.77.77,0,0,1,.52-.2.75.75,0,0,1,.52.2.66.66,0,0,1,0,1A.75.75,0,0,1,67.74,11.6Zm-.68,5.54V12.23h1.36v4.91Z"/><path d="M73.59,13.63l-1.25.08a.68.68,0,0,0-.26-.41.85.85,0,0,0-.56-.17,1,1,0,0,0-.53.14.38.38,0,0,0-.22.35.41.41,0,0,0,.14.3,1.16,1.16,0,0,0,.48.19l.89.18c1,.19,1.42.64,1.42,1.33a1.36,1.36,0,0,1-.28.85,1.83,1.83,0,0,1-.78.56,2.8,2.8,0,0,1-1.12.21A2.69,2.69,0,0,1,70,16.83a1.56,1.56,0,0,1-.67-1.11l1.34-.07a.68.68,0,0,0,.29.45,1.11,1.11,0,0,0,.6.15,1,1,0,0,0,.58-.14.42.42,0,0,0,.22-.35c0-.25-.22-.41-.63-.49l-.85-.17c-1-.19-1.42-.66-1.42-1.41A1.29,1.29,0,0,1,70,12.58a2.48,2.48,0,0,1,1.51-.41,2.41,2.41,0,0,1,1.46.39A1.51,1.51,0,0,1,73.59,13.63Z"/><path d="M76.8,17.24a2.66,2.66,0,0,1-1.3-.31,2,2,0,0,1-.84-.88,3.12,3.12,0,0,1,0-2.67,2.1,2.1,0,0,1,.83-.89,2.32,2.32,0,0,1,1.26-.32,2.52,2.52,0,0,1,1.17.27,2.14,2.14,0,0,1,.83.83,2.89,2.89,0,0,1,.3,1.39V15H75.71a1.2,1.2,0,0,0,.3.86,1.07,1.07,0,0,0,.81.32,1.2,1.2,0,0,0,.59-.14.75.75,0,0,0,.35-.43l1.26.08a1.73,1.73,0,0,1-.73,1.1A2.53,2.53,0,0,1,76.8,17.24Zm-1.09-3h2.06a1,1,0,0,0-.28-.72,1,1,0,0,0-.72-.29,1,1,0,0,0-.75.3A1,1,0,0,0,75.71,14.19Z"/><path d="M79.94,17.14V12.23h1.32v.86h0a1.23,1.23,0,0,1,.45-.69,1.18,1.18,0,0,1,.73-.24,2,2,0,0,1,.43.05v1.21l-.27-.06-.31,0a1,1,0,0,0-.74.29.94.94,0,0,0-.3.73v2.78Z"/><path d="M86,14.52a6.47,6.47,0,0,1,1.29-4h1.3a4.6,4.6,0,0,0-.6,1.09A7.47,7.47,0,0,0,87.58,13a7.23,7.23,0,0,0-.16,1.53,7.37,7.37,0,0,0,.16,1.53A7.69,7.69,0,0,0,88,17.48a4.51,4.51,0,0,0,.6,1.08H87.3A6.44,6.44,0,0,1,86,14.52Z"/><path d="M94.23,17.14H89.48V16h.42a.37.37,0,0,0,.27-.28,1.51,1.51,0,0,0,0-.48l0-.7h-.74V13.45h.7l0-1a1.8,1.8,0,0,1,.24-1.06,1.69,1.69,0,0,1,.74-.66,2.44,2.44,0,0,1,1.07-.22,2.52,2.52,0,0,1,1.14.24,1.65,1.65,0,0,1,.71.67,1.83,1.83,0,0,1,.22,1l-1.3,0a.65.65,0,0,0-.21-.58.91.91,0,0,0-.54-.17.69.69,0,0,0-.51.21.88.88,0,0,0-.2.63l0,1H93v1.09h-1.4l0,.63a1.13,1.13,0,0,1-.25.83h2.89Z"/><path d="M95.43,17.14V12.23h1.3v.87h.06a1.3,1.3,0,0,1,.51-.68,1.59,1.59,0,0,1,1.71,0,1.19,1.19,0,0,1,.48.68h.05a1.33,1.33,0,0,1,.54-.68,1.69,1.69,0,0,1,.94-.25,1.48,1.48,0,0,1,1.11.43,1.69,1.69,0,0,1,.43,1.24v3.3h-1.35v-3a.83.83,0,0,0-.22-.62.81.81,0,0,0-.55-.2.7.7,0,0,0-.57.24.87.87,0,0,0-.21.61v3H98.34V14.08a.81.81,0,0,0-.21-.58.72.72,0,0,0-.54-.21.72.72,0,0,0-.57.25.92.92,0,0,0-.23.65v3Z"/><path d="M105.93,14.52a6.44,6.44,0,0,1-1.29,4h-1.3a4.51,4.51,0,0,0,.6-1.08,7.69,7.69,0,0,0,.42-1.43,8.12,8.12,0,0,0,.16-1.53,8,8,0,0,0-.16-1.53,7.57,7.57,0,0,0-.42-1.44,4.51,4.51,0,0,0-.6-1.08h1.3A6.45,6.45,0,0,1,105.93,14.52Z"/><path d="M202.85,17.14h-1.48l2.26-6.55h1.78l2.26,6.55h-1.49l-.48-1.49h-2.36Zm.84-2.57h1.66l-.81-2.48h0Z"/><path d="M210,17.22a1.84,1.84,0,0,1-1-.29,2,2,0,0,1-.72-.85,3.23,3.23,0,0,1-.26-1.39,3.21,3.21,0,0,1,.27-1.4,1.88,1.88,0,0,1,.72-.84,1.86,1.86,0,0,1,1-.28,1.41,1.41,0,0,1,.69.14,1.31,1.31,0,0,1,.45.34,1.87,1.87,0,0,1,.26.41h0V10.59h1.36v6.55h-1.34v-.79h-.06a1.61,1.61,0,0,1-.27.41,1.42,1.42,0,0,1-1.12.46Zm.43-1.08a.88.88,0,0,0,.76-.4,1.86,1.86,0,0,0,.27-1.05,1.82,1.82,0,0,0-.27-1,.87.87,0,0,0-.76-.39.85.85,0,0,0-.77.4,1.8,1.8,0,0,0-.26,1,1.85,1.85,0,0,0,.26,1A.87.87,0,0,0,210.44,16.14Z"/><path d="M218.49,12.23l-1.72,4.91h-1.53l-1.72-4.91H215l1,3.51H216l1-3.51Z"/><path d="M219.87,11.6a.77.77,0,0,1-.52-.2.68.68,0,0,1,0-1,.77.77,0,0,1,.52-.2.75.75,0,0,1,.52.2.66.66,0,0,1,0,1A.75.75,0,0,1,219.87,11.6Zm-.68,5.54V12.23h1.36v4.91Z"/><path d="M225.72,13.63l-1.25.08a.68.68,0,0,0-.26-.41.85.85,0,0,0-.56-.17,1,1,0,0,0-.53.14.38.38,0,0,0-.22.35.41.41,0,0,0,.14.3,1.22,1.22,0,0,0,.48.19l.89.18c1,.19,1.42.64,1.42,1.33a1.36,1.36,0,0,1-.28.85,1.83,1.83,0,0,1-.78.56,2.8,2.8,0,0,1-1.12.21,2.69,2.69,0,0,1-1.56-.41,1.56,1.56,0,0,1-.67-1.11l1.34-.07a.68.68,0,0,0,.29.45,1.11,1.11,0,0,0,.6.15,1,1,0,0,0,.58-.14.42.42,0,0,0,.22-.35c0-.25-.22-.41-.63-.49L223,15.1c-.95-.19-1.42-.66-1.42-1.41a1.29,1.29,0,0,1,.57-1.11,3,3,0,0,1,3,0A1.54,1.54,0,0,1,225.72,13.63Z"/><path d="M228.93,17.24a2.66,2.66,0,0,1-1.3-.31,2,2,0,0,1-.84-.88,3.12,3.12,0,0,1,0-2.67,2.1,2.1,0,0,1,.83-.89,2.32,2.32,0,0,1,1.26-.32,2.52,2.52,0,0,1,1.17.27,2.07,2.07,0,0,1,.83.83,2.89,2.89,0,0,1,.3,1.39V15h-3.34a1.2,1.2,0,0,0,.3.86,1.07,1.07,0,0,0,.81.32,1.2,1.2,0,0,0,.59-.14.8.8,0,0,0,.36-.43l1.25.08a1.75,1.75,0,0,1-.72,1.1A2.58,2.58,0,0,1,228.93,17.24Zm-1.09-3h2.06a1,1,0,0,0-1-1,1,1,0,0,0-.75.3A1,1,0,0,0,227.84,14.19Z"/><path d="M232.07,17.14V12.23h1.32v.86h.05a1.23,1.23,0,0,1,.45-.69,1.18,1.18,0,0,1,.73-.24,2,2,0,0,1,.43.05v1.21l-.27-.06-.31,0a1,1,0,0,0-.74.29.94.94,0,0,0-.3.73v2.78Z"/><path d="M237.84,17.14V12.23h1.32v.86h.05a1.23,1.23,0,0,1,.45-.69,1.16,1.16,0,0,1,.73-.24,2,2,0,0,1,.43.05v1.21l-.27-.06-.31,0a1.05,1.05,0,0,0-.75.29,1,1,0,0,0-.29.73v2.78Z"/><path d="M243.52,17.24a2.69,2.69,0,0,1-1.3-.31,2.16,2.16,0,0,1-.84-.88,3.22,3.22,0,0,1,0-2.67,2.16,2.16,0,0,1,.83-.89,2.36,2.36,0,0,1,1.26-.32,2.52,2.52,0,0,1,1.17.27,2.07,2.07,0,0,1,.83.83,2.89,2.89,0,0,1,.31,1.39V15h-3.35a1.2,1.2,0,0,0,.3.86,1.07,1.07,0,0,0,.81.32,1.27,1.27,0,0,0,.6-.14.83.83,0,0,0,.35-.43l1.26.08a1.77,1.77,0,0,1-.73,1.1A2.58,2.58,0,0,1,243.52,17.24Zm-1.09-3h2.06a1,1,0,0,0-.28-.72,1,1,0,0,0-.72-.29,1,1,0,0,0-.74.3A1,1,0,0,0,242.43,14.19Z"/><path d="M251.1,12.23l-1.71,4.91h-1.54l-1.71-4.91h1.43l1,3.51h.06l1-3.51Z"/><path d="M253.87,17.24a2.69,2.69,0,0,1-1.3-.31,2.16,2.16,0,0,1-.84-.88,3.22,3.22,0,0,1,0-2.67,2.16,2.16,0,0,1,.83-.89,2.36,2.36,0,0,1,1.26-.32,2.52,2.52,0,0,1,1.17.27,2,2,0,0,1,.83.83,2.89,2.89,0,0,1,.31,1.39V15h-3.35a1.2,1.2,0,0,0,.3.86,1.09,1.09,0,0,0,.82.32,1.25,1.25,0,0,0,.59-.14.83.83,0,0,0,.35-.43l1.26.08a1.77,1.77,0,0,1-.73,1.1A2.58,2.58,0,0,1,253.87,17.24Zm-1.09-3h2.07a1,1,0,0,0-.29-.72,1,1,0,0,0-.72-.29,1,1,0,0,0-.74.3A1,1,0,0,0,252.78,14.19Z"/><path d="M258.38,14.3v2.84H257V12.23h1.29v.87h.06a1.36,1.36,0,0,1,.55-.68,1.82,1.82,0,0,1,2.16.24,1.89,1.89,0,0,1,.46,1.35v3.13h-1.36V14.26a1,1,0,0,0-.23-.71.83.83,0,0,0-.64-.25.9.9,0,0,0-.67.26A1,1,0,0,0,258.38,14.3Z"/><path d="M265.76,15.05V12.23h1.36v4.91h-1.31v-.89h-.05a1.39,1.39,0,0,1-.55.69,1.76,1.76,0,0,1-2.14-.23,1.94,1.94,0,0,1-.46-1.35V12.23H264v2.88a1,1,0,0,0,.24.69.78.78,0,0,0,.61.25.91.91,0,0,0,.94-1Z"/><path d="M270.44,17.24a2.69,2.69,0,0,1-1.3-.31,2.16,2.16,0,0,1-.84-.88,3.22,3.22,0,0,1,0-2.67,2.23,2.23,0,0,1,.83-.89,2.36,2.36,0,0,1,1.26-.32,2.52,2.52,0,0,1,1.17.27,2,2,0,0,1,.83.83,2.78,2.78,0,0,1,.31,1.39V15h-3.35a1.21,1.21,0,0,0,.31.86,1.07,1.07,0,0,0,.81.32,1.22,1.22,0,0,0,.59-.14.79.79,0,0,0,.35-.43l1.26.08a1.77,1.77,0,0,1-.73,1.1A2.58,2.58,0,0,1,270.44,17.24Zm-1.09-3h2.07a1.06,1.06,0,0,0-.28-.72,1.06,1.06,0,0,0-1.47,0A1,1,0,0,0,269.35,14.19Z"/><path d="M277.89,19.05a2.73,2.73,0,0,1-1.56-.39,1.53,1.53,0,0,1-.69-.94l1.26-.17a.85.85,0,0,0,.33.36,1.46,1.46,0,0,0,1.42-.05.8.8,0,0,0,.29-.69v-.9h-.06a1.34,1.34,0,0,1-.47.55,1.53,1.53,0,0,1-.93.25,2,2,0,0,1-1-.26,1.8,1.8,0,0,1-.72-.79,2.93,2.93,0,0,1-.27-1.34,3.06,3.06,0,0,1,.28-1.4,1.91,1.91,0,0,1,.72-.83,1.81,1.81,0,0,1,1-.28,1.47,1.47,0,0,1,.69.14,1.31,1.31,0,0,1,.45.34,1.56,1.56,0,0,1,.26.41h.05v-.83h1.36v5a1.67,1.67,0,0,1-.31,1,1.89,1.89,0,0,1-.85.63A3.43,3.43,0,0,1,277.89,19.05Zm0-3a.89.89,0,0,0,.77-.37,1.66,1.66,0,0,0,.27-1,1.77,1.77,0,0,0-.27-1,.88.88,0,0,0-.77-.39.84.84,0,0,0-.76.4,1.76,1.76,0,0,0-.27,1,1.7,1.7,0,0,0,.27,1A.89.89,0,0,0,277.91,16.05Z"/><path d="M283.61,17.24a2.66,2.66,0,0,1-1.3-.31,2,2,0,0,1-.84-.88,3.12,3.12,0,0,1,0-2.67,2.1,2.1,0,0,1,.83-.89,2.32,2.32,0,0,1,1.26-.32,2.52,2.52,0,0,1,1.17.27,2.07,2.07,0,0,1,.83.83,2.89,2.89,0,0,1,.3,1.39V15h-3.34a1.2,1.2,0,0,0,.3.86,1.07,1.07,0,0,0,.81.32,1.2,1.2,0,0,0,.59-.14.8.8,0,0,0,.36-.43l1.25.08a1.71,1.71,0,0,1-.72,1.1A2.58,2.58,0,0,1,283.61,17.24Zm-1.09-3h2.06a1,1,0,0,0-1-1,1,1,0,0,0-.75.3A1.08,1.08,0,0,0,282.52,14.19Z"/><path d="M288.11,14.3v2.84h-1.36V12.23h1.3v.87h.06a1.4,1.4,0,0,1,.54-.68,1.66,1.66,0,0,1,.93-.25,1.58,1.58,0,0,1,1.23.49,1.9,1.9,0,0,1,.47,1.35v3.13h-1.36V14.26a1,1,0,0,0-.23-.71.84.84,0,0,0-.65-.25.94.94,0,0,0-.67.26A1.07,1.07,0,0,0,288.11,14.3Z"/><path d="M294.58,17.24a2.69,2.69,0,0,1-1.3-.31,2.16,2.16,0,0,1-.84-.88,3.22,3.22,0,0,1,0-2.67,2.23,2.23,0,0,1,.83-.89,2.36,2.36,0,0,1,1.26-.32,2.52,2.52,0,0,1,1.17.27,2,2,0,0,1,.83.83,2.78,2.78,0,0,1,.31,1.39V15h-3.35a1.21,1.21,0,0,0,.31.86,1.07,1.07,0,0,0,.81.32,1.22,1.22,0,0,0,.59-.14.83.83,0,0,0,.35-.43l1.26.08a1.77,1.77,0,0,1-.73,1.1A2.58,2.58,0,0,1,294.58,17.24Zm-1.09-3h2.07a1,1,0,0,0-.29-.72,1,1,0,0,0-.72-.29,1,1,0,0,0-.74.3A1,1,0,0,0,293.49,14.19Z"/><path d="M297.73,17.14V12.23h1.32v.86h.05a1.23,1.23,0,0,1,.45-.69,1.16,1.16,0,0,1,.73-.24,2,2,0,0,1,.43.05v1.21l-.27-.06-.31,0a1.05,1.05,0,0,0-.75.29,1,1,0,0,0-.29.73v2.78Z"/><path d="M302.67,17.23a1.85,1.85,0,0,1-1.17-.36,1.33,1.33,0,0,1-.46-1.1,1.25,1.25,0,0,1,.26-.86,1.38,1.38,0,0,1,.68-.46,3.69,3.69,0,0,1,.9-.19,7.71,7.71,0,0,0,.92-.14.3.3,0,0,0,.27-.3v0a.57.57,0,0,0-.19-.47.81.81,0,0,0-.54-.17.93.93,0,0,0-.58.16.74.74,0,0,0-.29.41l-1.26-.11a1.68,1.68,0,0,1,.7-1.06,2.45,2.45,0,0,1,1.44-.39,2.88,2.88,0,0,1,1,.17,1.64,1.64,0,0,1,.77.54,1.49,1.49,0,0,1,.29.95v3.31h-1.29v-.68h0a1.49,1.49,0,0,1-.53.56A1.76,1.76,0,0,1,302.67,17.23Zm.39-.94a1,1,0,0,0,.73-.26.84.84,0,0,0,.29-.64v-.53a.76.76,0,0,1-.25.1l-.36.07-.34.05a1.41,1.41,0,0,0-.57.21.48.48,0,0,0-.22.43.51.51,0,0,0,.2.43A.86.86,0,0,0,303.06,16.29Z"/><path d="M309.1,12.23v1h-.92v2.38c0,.19,0,.32.13.38a.48.48,0,0,0,.33.1l.19,0,.15,0,.21,1a2.06,2.06,0,0,1-.29.07,2.46,2.46,0,0,1-.45.06,1.79,1.79,0,0,1-1.19-.32,1.27,1.27,0,0,1-.44-1.08V13.25h-.67v-1h.67V11.05h1.36v1.18Z"/><path d="M312.17,17.24a2.69,2.69,0,0,1-1.3-.31,2.16,2.16,0,0,1-.84-.88,3.22,3.22,0,0,1,0-2.67,2.16,2.16,0,0,1,.83-.89,2.36,2.36,0,0,1,1.26-.32,2.52,2.52,0,0,1,1.17.27,2.07,2.07,0,0,1,.83.83,2.89,2.89,0,0,1,.31,1.39V15h-3.35a1.2,1.2,0,0,0,.3.86,1.07,1.07,0,0,0,.81.32,1.27,1.27,0,0,0,.6-.14.83.83,0,0,0,.35-.43l1.26.08a1.77,1.77,0,0,1-.73,1.1A2.58,2.58,0,0,1,312.17,17.24Zm-1.09-3h2.06a1,1,0,0,0-.28-.72,1,1,0,0,0-.72-.29,1,1,0,0,0-.74.3A1,1,0,0,0,311.08,14.19Z"/><path d="M317.12,17.22a1.86,1.86,0,0,1-1-.29,1.94,1.94,0,0,1-.71-.85,3.22,3.22,0,0,1-.27-1.39,3.06,3.06,0,0,1,.28-1.4,1.88,1.88,0,0,1,.72-.84,1.81,1.81,0,0,1,1-.28,1.44,1.44,0,0,1,.69.14,1.41,1.41,0,0,1,.45.34,1.87,1.87,0,0,1,.26.41h0V10.59h1.36v6.55h-1.35v-.79h-.05a1.93,1.93,0,0,1-.27.41,1.42,1.42,0,0,1-1.13.46Zm.44-1.08a.89.89,0,0,0,.76-.4,1.86,1.86,0,0,0,.27-1.05,1.82,1.82,0,0,0-.27-1,.87.87,0,0,0-.76-.39.85.85,0,0,0-.77.4,1.8,1.8,0,0,0-.27,1,1.85,1.85,0,0,0,.27,1A.86.86,0,0,0,317.56,16.14Z"/><path d="M201.7,31V24.23H203v.83h.06a1.87,1.87,0,0,1,.26-.41,1.22,1.22,0,0,1,.45-.34,1.41,1.41,0,0,1,.69-.14,1.81,1.81,0,0,1,1,.28,1.88,1.88,0,0,1,.72.84,3.8,3.8,0,0,1,0,2.79,2,2,0,0,1-.72.85,1.84,1.84,0,0,1-1,.29,1.51,1.51,0,0,1-.67-.13,1.54,1.54,0,0,1-.45-.33,1.61,1.61,0,0,1-.27-.41h0V31ZM203,26.69a1.86,1.86,0,0,0,.27,1,.93.93,0,0,0,1.53,0,1.93,1.93,0,0,0,.26-1,1.8,1.8,0,0,0-.26-1,.94.94,0,0,0-1.53,0A1.82,1.82,0,0,0,203,26.69Z"/><path d="M209.63,29.24a2.7,2.7,0,0,1-1.31-.31,2.16,2.16,0,0,1-.84-.88,3.22,3.22,0,0,1,0-2.67,2.23,2.23,0,0,1,.83-.89,2.36,2.36,0,0,1,1.26-.32,2.52,2.52,0,0,1,1.17.27,2,2,0,0,1,.83.83,2.78,2.78,0,0,1,.31,1.39V27h-3.34a1.2,1.2,0,0,0,.3.86,1.07,1.07,0,0,0,.81.32,1.22,1.22,0,0,0,.59-.14.79.79,0,0,0,.35-.43l1.26.08a1.77,1.77,0,0,1-.73,1.1A2.57,2.57,0,0,1,209.63,29.24Zm-1.09-3h2.06a1.06,1.06,0,0,0-.28-.72,1.05,1.05,0,0,0-1.78.72Z"/><path d="M212.77,29.14V24.23h1.32v.86h0a1.23,1.23,0,0,1,.45-.69,1.16,1.16,0,0,1,.73-.24,2,2,0,0,1,.43.05v1.21l-.27-.06-.31,0a1.05,1.05,0,0,0-.75.29,1,1,0,0,0-.29.73v2.78Z"/><path d="M219.93,29.23a1.81,1.81,0,0,1-1.16-.36,1.34,1.34,0,0,1-.47-1.1,1.3,1.3,0,0,1,.26-.86,1.42,1.42,0,0,1,.68-.46,3.67,3.67,0,0,1,.91-.19,7.46,7.46,0,0,0,.91-.14.31.31,0,0,0,.28-.3v0a.6.6,0,0,0-.19-.47.81.81,0,0,0-.54-.17,1,1,0,0,0-.59.16.8.8,0,0,0-.29.41l-1.25-.11a1.66,1.66,0,0,1,.69-1.06,2.47,2.47,0,0,1,1.44-.39,2.89,2.89,0,0,1,1,.17,1.61,1.61,0,0,1,.76.54,1.44,1.44,0,0,1,.3.95v3.31h-1.29v-.68h0a1.45,1.45,0,0,1-.54.56A1.76,1.76,0,0,1,219.93,29.23Zm.39-.94a1,1,0,0,0,.74-.26.84.84,0,0,0,.29-.64v-.53a.86.86,0,0,1-.25.1l-.36.07-.34,0a1.46,1.46,0,0,0-.58.21.5.5,0,0,0-.22.43.49.49,0,0,0,.21.43A.81.81,0,0,0,220.32,28.29Z"/><path d="M225.56,29.22a1.86,1.86,0,0,1-1-.29,2,2,0,0,1-.71-.85,3.22,3.22,0,0,1-.27-1.39,3.06,3.06,0,0,1,.28-1.4,1.88,1.88,0,0,1,.72-.84,1.81,1.81,0,0,1,1-.28,1.44,1.44,0,0,1,.69.14,1.41,1.41,0,0,1,.45.34,1.87,1.87,0,0,1,.26.41h0V22.59h1.36v6.55H227v-.79H227a1.61,1.61,0,0,1-.27.41,1.42,1.42,0,0,1-1.13.46Zm.44-1.08a.89.89,0,0,0,.76-.4,1.86,1.86,0,0,0,.27-1,1.82,1.82,0,0,0-.27-1.05.87.87,0,0,0-.76-.39.85.85,0,0,0-.77.4,1.8,1.8,0,0,0-.27,1,1.85,1.85,0,0,0,.27,1A.86.86,0,0,0,226,28.14Z"/><path d="M234.05,24.23l-1.72,4.91H230.8l-1.72-4.91h1.44l1,3.51h.05l1-3.51Z"/><path d="M235.43,23.6a.77.77,0,0,1-.52-.2.66.66,0,0,1,0-1,.77.77,0,0,1,.52-.2.75.75,0,0,1,.52.2.66.66,0,0,1,0,1A.75.75,0,0,1,235.43,23.6Zm-.68,5.54V24.23h1.36v4.91Z"/><path d="M241.28,25.63l-1.25.08a.68.68,0,0,0-.26-.41.85.85,0,0,0-.56-.17,1,1,0,0,0-.53.14.38.38,0,0,0-.22.35.37.37,0,0,0,.14.3,1.1,1.1,0,0,0,.48.19l.89.18c.95.19,1.42.64,1.42,1.33a1.36,1.36,0,0,1-.28.85,1.83,1.83,0,0,1-.78.56,2.85,2.85,0,0,1-1.13.21,2.66,2.66,0,0,1-1.55-.41,1.56,1.56,0,0,1-.67-1.11l1.34-.07a.68.68,0,0,0,.29.45,1.09,1.09,0,0,0,.6.15,1,1,0,0,0,.57-.14.43.43,0,0,0,.23-.35c0-.25-.22-.41-.63-.49l-.85-.17c-.95-.19-1.43-.66-1.42-1.41a1.27,1.27,0,0,1,.57-1.11,2.48,2.48,0,0,1,1.51-.41,2.41,2.41,0,0,1,1.46.39A1.51,1.51,0,0,1,241.28,25.63Z"/><path d="M244.49,29.24a2.63,2.63,0,0,1-1.3-.31,2,2,0,0,1-.84-.88,3.12,3.12,0,0,1,0-2.67,2.1,2.1,0,0,1,.83-.89,2.3,2.3,0,0,1,1.25-.32,2.46,2.46,0,0,1,1.17.27,2,2,0,0,1,.83.83,2.78,2.78,0,0,1,.31,1.39V27H243.4a1.2,1.2,0,0,0,.3.86,1.07,1.07,0,0,0,.81.32,1.22,1.22,0,0,0,.59-.14.79.79,0,0,0,.35-.43l1.26.08a1.73,1.73,0,0,1-.73,1.1A2.57,2.57,0,0,1,244.49,29.24Zm-1.09-3h2.06a1,1,0,0,0-.28-.72,1.06,1.06,0,0,0-1.47,0A1,1,0,0,0,243.4,26.19Z"/><path d="M247.63,29.14V24.23H249v.86H249a1.23,1.23,0,0,1,.45-.69,1.16,1.16,0,0,1,.73-.24,2,2,0,0,1,.43.05v1.21l-.27-.06-.31,0a1,1,0,0,0-.74.29.94.94,0,0,0-.3.73v2.78Z"/><rect class="cls-2" x="14.28" y="121.53" width="34.02" height="23.57"/><rect class="cls-3" x="53.94" y="83.5" width="34.02" height="61.6"/><rect class="cls-4" x="93.59" y="63.27" width="34.02" height="81.84"/><rect class="cls-5" x="133.24" y="54.82" width="34.02" height="90.29"/><circle class="cls-2" cx="31.29" cy="167.78" r="17.01"/><circle class="cls-6" cx="31.29" cy="167.78" r="1.15"/><path class="cls-6" d="M37.87,160.89l-8.71,4.67a.2.2,0,0,0-.09.09l-4.67,8.71a.23.23,0,0,0,0,.27.28.28,0,0,0,.16.07.2.2,0,0,0,.11,0L33.42,170a.2.2,0,0,0,.09-.09l4.67-8.71a.23.23,0,0,0-.31-.31Zm-4.73,8.74-8,4.27,4.27-8,8-4.27Z"/><path class="cls-6" d="M31.29,156.65a11.13,11.13,0,1,0,11.13,11.13A11.13,11.13,0,0,0,31.29,156.65Zm7.54,18.67a10.61,10.61,0,0,1-7.31,3.13V177a.23.23,0,0,0-.46,0v1.49A10.68,10.68,0,0,1,20.63,168h1.48a.23.23,0,0,0,0-.46H20.63a10.66,10.66,0,0,1,10.43-10.43v1.48a.23.23,0,1,0,.46,0v-1.48A10.68,10.68,0,0,1,42,167.55H40.47a.23.23,0,0,0,0,.46H42A10.61,10.61,0,0,1,38.83,175.32Z"/><circle class="cls-6" cx="218.08" cy="167.5" r="1.15"/><path class="cls-6" d="M224.66,160.62,216,165.28a.22.22,0,0,0-.09.1l-4.67,8.7a.23.23,0,0,0,0,.27.23.23,0,0,0,.17.07.19.19,0,0,0,.1,0l8.71-4.66a.28.28,0,0,0,.09-.1l4.67-8.7a.23.23,0,0,0,0-.27A.21.21,0,0,0,224.66,160.62Zm-4.73,8.73-8,4.28,4.27-8,8-4.28Z"/><path class="cls-6" d="M218.08,156.38a11.13,11.13,0,1,0,11.13,11.12A11.12,11.12,0,0,0,218.08,156.38Zm7.54,18.67a10.6,10.6,0,0,1-7.31,3.12v-1.48a.23.23,0,1,0-.46,0v1.48a10.66,10.66,0,0,1-10.43-10.44h1.48a.23.23,0,0,0,.23-.23.23.23,0,0,0-.23-.23h-1.48a10.66,10.66,0,0,1,10.43-10.43v1.48a.23.23,0,1,0,.46,0v-1.48a10.68,10.68,0,0,1,10.44,10.43h-1.49a.23.23,0,0,0-.23.23.23.23,0,0,0,.23.23h1.49A10.62,10.62,0,0,1,225.62,175.05Z"/><circle class="cls-3" cx="70.94" cy="167.78" r="17.01"/><path class="cls-7" d="M76.46,171.78l0,0c1.75-1.82,3.56-3.69,3.56-7.6a7.77,7.77,0,0,0-2.19-5.36,8,8,0,0,0-5.79-2.36c-3.47,0-6,.88-7.52,2.61-1.33,1.52-1.84,3.65-1.5,6.34-.24.34-.85,1.18-1.35,2-.68,1.12-.75,1.51-.71,1.72a.38.38,0,0,0,.13.26,1.66,1.66,0,0,0,1.16.2v.19a10.33,10.33,0,0,0,0,1.65.21.21,0,0,0,.12.19l.39.2v.37a10.72,10.72,0,0,0,.15,1.61c.15.87.31,1.13.51,1.19.44.28,1.44.16,2.88-.05.51-.07,1-.15,1.32-.16a9.55,9.55,0,0,1,0,4.09.22.22,0,0,0,0,.19.23.23,0,0,0,.17.08h9.84a.24.24,0,0,0,.19-.1.25.25,0,0,0,0-.22A17.75,17.75,0,0,1,76.46,171.78Zm-8.28,6.88a9.28,9.28,0,0,0-.14-4.19.21.21,0,0,0-.21-.17h-.07a11.92,11.92,0,0,0-1.49.16,6.37,6.37,0,0,1-2.59.11l-.06,0a7.46,7.46,0,0,1-.37-2.37v-.51a.23.23,0,0,0-.13-.21l-.39-.2a10.4,10.4,0,0,1,0-1.47c0-.13,0-.27,0-.44a.28.28,0,0,0-.07-.17.24.24,0,0,0-.16-.07h-.19c-.6,0-.81,0-.88-.06a.11.11,0,0,0,0-.05,11.91,11.91,0,0,1,2-3.41.24.24,0,0,0,0-.16c-.34-2.6.12-4.64,1.37-6.07,1.43-1.63,3.85-2.46,7.18-2.46a7.31,7.31,0,0,1,7.52,7.26c0,3.72-1.66,5.45-3.43,7.28l-.09.09a.23.23,0,0,0-.06.16,18.11,18.11,0,0,0,1.4,7Z"/><path class="cls-7" d="M71.31,162a2.62,2.62,0,1,0,2.62,2.62A2.61,2.61,0,0,0,71.31,162Zm0,4.77a2.16,2.16,0,1,1,2.16-2.15A2.16,2.16,0,0,1,71.31,166.79Z"/><path class="cls-7" d="M75.26,166.67c.11-.27.18-.43.29-.71l1-.26a.6.6,0,0,0,.41-.55v-1a.6.6,0,0,0-.41-.55l-1-.26c-.11-.28-.18-.43-.29-.71l.51-.88a.56.56,0,0,0-.1-.69l-.72-.72a.55.55,0,0,0-.69-.09l-.88.49-.71-.29-.26-1a.59.59,0,0,0-.55-.41h-1a.56.56,0,0,0-.55.42l-.26,1-.71.29-.88-.51a.56.56,0,0,0-.69.1L67,161a.55.55,0,0,0-.09.69l.49.88c-.11.27-.18.43-.29.71l-1,.26a.6.6,0,0,0-.41.55v1a.56.56,0,0,0,.42.55l1,.26c.11.28.18.43.29.71l-.51.88a.56.56,0,0,0,.1.69l.72.72a.55.55,0,0,0,.69.09l.88-.49.71.29.26,1a.6.6,0,0,0,.55.41h1a.56.56,0,0,0,.55-.42l.26-1,.71-.29.88.51a.56.56,0,0,0,.69-.1l.72-.72a.55.55,0,0,0,.09-.69Zm.08,1.24-.73.73h0a.1.1,0,0,1-.12,0l-1.07-.61-.1,0c-.38.14-.54.21-.88.35l-.15.07L72,169.69h0a.1.1,0,0,1-.1.07h-1a.12.12,0,0,1-.1-.08l-.33-1.19-.11,0-.87-.35-.14-.07-1.08.62h0a.11.11,0,0,1-.12,0l-.73-.73h0a.1.1,0,0,1,0-.12l.61-1.07,0-.1c-.14-.38-.21-.55-.35-.88l-.07-.15-1.18-.33h0a.1.1,0,0,1-.07-.1v-1a.12.12,0,0,1,.08-.1l1.19-.33,0-.11c.14-.36.21-.52.35-.87l.07-.14-.62-1.08h0a.11.11,0,0,1,0-.12l.73-.73h0a.1.1,0,0,1,.12,0l1.07.61.1,0c.38-.14.55-.21.88-.35l.15-.07.33-1.18h0a.1.1,0,0,1,.1-.07h1a.12.12,0,0,1,.1.08l.33,1.19.11,0,.87.35.14.07,1.08-.62h0a.11.11,0,0,1,.12,0l.73.73h0a.1.1,0,0,1,0,.12l-.61,1.07,0,.1c.14.38.21.55.35.88l.07.15,1.18.33a.11.11,0,0,1,.08.1v1a.12.12,0,0,1-.08.1l-1.19.33,0,.11c-.14.36-.21.52-.35.87l-.07.14.62,1.08h0A.11.11,0,0,1,75.34,167.91Z"/><circle class="cls-4" cx="110.6" cy="167.78" r="17.01"/><path class="cls-7" d="M110.72,165.58A2.61,2.61,0,1,0,108.1,163,2.61,2.61,0,0,0,110.72,165.58Zm0-4.76a2.15,2.15,0,1,1-2.16,2.15A2.15,2.15,0,0,1,110.72,160.82Z"/><path class="cls-7" d="M105.55,164l1,.27c.12.27.18.43.29.71l-.5.87a.59.59,0,0,0,.09.7l.73.72a.56.56,0,0,0,.69.09l.87-.5.71.29.27,1a.58.58,0,0,0,.55.41h1a.56.56,0,0,0,.55-.43l.27-1,.7-.29.88.5a.56.56,0,0,0,.69-.1l.73-.72a.57.57,0,0,0,.09-.69l-.5-.87c.12-.27.18-.43.29-.71l1-.27a.58.58,0,0,0,.42-.55v-1a.58.58,0,0,0-.42-.55h0l-1-.27c-.12-.27-.18-.43-.29-.7l.5-.88a.56.56,0,0,0-.1-.69l-.72-.73a.58.58,0,0,0-.69-.09l-.87.5-.71-.29-.27-1a.59.59,0,0,0-.55-.41h-1a.56.56,0,0,0-.55.43l-.27,1-.71.29-.88-.5a.56.56,0,0,0-.69.1l-.72.72a.55.55,0,0,0-.09.69l.5.87c-.12.28-.19.43-.29.71l-1,.27a.58.58,0,0,0-.41.55v1A.55.55,0,0,0,105.55,164Zm0-1.58a.13.13,0,0,1,.08-.11l1.08-.29a.21.21,0,0,0,.15-.14c.14-.37.21-.53.36-.87l0,0a.26.26,0,0,0,0-.21l-.55-1h0a.11.11,0,0,1,0-.13l.72-.72h0a.09.09,0,0,1,.12,0l1,.55a.23.23,0,0,0,.2,0c.37-.14.53-.21.88-.36l0,0a.23.23,0,0,0,.14-.15l.29-1.08h0a.11.11,0,0,1,.11-.07h1a.13.13,0,0,1,.11.08l.29,1.08a.25.25,0,0,0,.14.16c.37.13.52.2.86.35l0,0a.26.26,0,0,0,.21,0l1-.55h0a.1.1,0,0,1,.12,0l.73.72h0a.1.1,0,0,1,0,.13l-.56,1a.23.23,0,0,0,0,.2c.14.37.21.53.36.88l0,0a.21.21,0,0,0,.15.14l1.07.29a.13.13,0,0,1,.09.11v1a.12.12,0,0,1-.08.11l-1.08.29a.25.25,0,0,0-.16.14c-.14.37-.2.53-.35.87l0,0a.26.26,0,0,0,0,.21l.56,1h0a.11.11,0,0,1,0,.13L114,167h0a.1.1,0,0,1-.13,0l-1-.55a.24.24,0,0,0-.2,0c-.38.14-.54.21-.89.36l0,0a.24.24,0,0,0-.13.15l-.29,1.08h0a.1.1,0,0,1-.1.07h-1a.12.12,0,0,1-.11-.08l-.29-1.08a.23.23,0,0,0-.14-.15c-.37-.14-.53-.21-.87-.36l0,0h-.09a.23.23,0,0,0-.11,0l-1,.55h0a.1.1,0,0,1-.12,0l-.72-.72h0a.1.1,0,0,1,0-.13l.55-1a.23.23,0,0,0,0-.2c-.15-.37-.21-.53-.36-.88l0,0a.23.23,0,0,0-.15-.14l-1.08-.29h0a.11.11,0,0,1-.07-.11Z"/><path class="cls-7" d="M121.63,173a1.5,1.5,0,0,0-1.9-.78l-3.39,1a1.28,1.28,0,0,0-1.28-1.08h0c-.77,0-4,0-4.62,0a19.31,19.31,0,0,0-3-2.52,14.83,14.83,0,0,0-3.08.23v-1.13a.54.54,0,0,0-.54-.53H100a.54.54,0,0,0-.54.53v8.16a.54.54,0,0,0,.54.54h3.79a.54.54,0,0,0,.54-.54v-.93l6,2a3.35,3.35,0,0,0,1.22.22,4.94,4.94,0,0,0,1.72-.33l7.84-3.59A.93.93,0,0,0,121.63,173Zm-17.73,3.84a.07.07,0,0,1-.08.08H100a.08.08,0,0,1-.08-.08v-8.16a.08.08,0,0,1,.08-.07h3.79a.07.07,0,0,1,.08.07Zm17-3-7.82,3.59a3.94,3.94,0,0,1-2.59.1l-6.13-2.07v-5.15a17.63,17.63,0,0,1,3-.25,21.51,21.51,0,0,1,2.85,2.48.26.26,0,0,0,.16.07h4.73a.81.81,0,0,1,.84.78c0,.37-.19.79-.87.87l-5.53.37a.23.23,0,0,0-.21.25.23.23,0,0,0,.23.21h0l5.54-.37h0a1.35,1.35,0,0,0,1.26-1l3.51-1a1.07,1.07,0,0,1,1.35.5A.48.48,0,0,1,120.9,173.77Z"/><circle class="cls-7" cx="101.93" cy="175.75" r="0.38"/><circle class="cls-5" cx="150.25" cy="167.78" r="17.01"/><path class="cls-7" d="M150.25,169.18a4.45,4.45,0,1,0-4.45-4.45A4.45,4.45,0,0,0,150.25,169.18Zm0-8.44a4,4,0,1,1-4,4A4,4,0,0,1,150.25,160.74Z"/><path class="cls-7" d="M158.32,176.08l-2.84-6.85,2.55-1.06a.23.23,0,0,0,.13-.3l-1.28-3.09,1.28-3.1a.23.23,0,0,0-.13-.3l-3.09-1.28L153.66,157a.22.22,0,0,0-.3-.12l-3.09,1.28-3.09-1.28a.19.19,0,0,0-.18,0,.18.18,0,0,0-.12.12l-1.28,3.09-3.1,1.28a.25.25,0,0,0-.12.13.25.25,0,0,0,0,.17l1.28,3.1-1.28,3.09a.24.24,0,0,0,.12.3l2.53,1.05-2.84,6.86a.23.23,0,0,0,.3.3l3.28-1.36,1.38,3.34a.25.25,0,0,0,.22.14.24.24,0,0,0,.21-.14l2.67-6.46,2.67,6.46a.25.25,0,0,0,.22.14.24.24,0,0,0,.21-.14l1.38-3.34,3.28,1.36a.23.23,0,0,0,.26,0A.25.25,0,0,0,158.32,176.08Zm-14.2-11.22a.17.17,0,0,0,0-.17l-1.23-3,3-1.23a.2.2,0,0,0,.12-.12l1.23-3,3,1.23a.28.28,0,0,0,.18,0l3-1.23,1.23,3a.25.25,0,0,0,.13.12l3,1.23-1.22,3a.17.17,0,0,0,0,.17l1.22,3-3,1.23a.25.25,0,0,0-.13.12l-1.23,3-3-1.23-.09,0-.09,0-3,1.23-1.23-3a.2.2,0,0,0-.12-.12l-3-1.23Zm3.25,12.81-1.26-3a.23.23,0,0,0-.3-.12l-3,1.24,2.63-6.36.14.06,1.28,3.09a.22.22,0,0,0,.3.12l2.73-1.13Zm7.32-3.16a.25.25,0,0,0-.17,0,.25.25,0,0,0-.13.12l-1.25,3-2.55-6.15,2.77,1.14a.15.15,0,0,0,.09,0,.23.23,0,0,0,.21-.14l1.28-3.09.11,0,2.63,6.35Z"/><rect class="cls-5" x="302.8" y="54.25" width="53.86" height="130.39"/><rect class="cls-4" x="258.21" y="54.25" width="44.59" height="130.39"/><path class="cls-7" d="M222.69,85.48l0,0c1.75-1.82,3.56-3.69,3.56-7.6a7.74,7.74,0,0,0-2.2-5.36,8,8,0,0,0-5.78-2.36c-3.48,0-6,.88-7.53,2.61-1.33,1.52-1.83,3.65-1.49,6.34-.25.34-.85,1.18-1.35,2-.69,1.12-.76,1.51-.71,1.72a.42.42,0,0,0,.12.26,1.66,1.66,0,0,0,1.16.2v.19a13.45,13.45,0,0,0,0,1.65.22.22,0,0,0,.13.19l.39.2v.37a10.72,10.72,0,0,0,.15,1.61c.14.87.31,1.13.5,1.19.45.28,1.44.16,2.89,0,.5-.07,1-.15,1.31-.16a9.4,9.4,0,0,1,0,4.09.23.23,0,0,0,.23.27H224a.23.23,0,0,0,.19-.1.22.22,0,0,0,0-.22A17.74,17.74,0,0,1,222.69,85.48Zm-8.28,6.88a9.42,9.42,0,0,0-.14-4.19.23.23,0,0,0-.22-.17H214a11.86,11.86,0,0,0-1.5.16,6.37,6.37,0,0,1-2.59.11l-.06,0a7.52,7.52,0,0,1-.36-2.37v-.51a.23.23,0,0,0-.13-.21L209,85a12.17,12.17,0,0,1,0-1.47c0-.13,0-.27,0-.44a.27.27,0,0,0-.06-.17.28.28,0,0,0-.17-.07h-.19c-.59,0-.8,0-.87-.06a.43.43,0,0,1,0,0,11.74,11.74,0,0,1,2-3.41.2.2,0,0,0,0-.16c-.34-2.6.12-4.64,1.38-6.07,1.43-1.63,3.84-2.46,7.18-2.46a7.31,7.31,0,0,1,7.52,7.26c0,3.72-1.67,5.45-3.43,7.28l-.09.09a.24.24,0,0,0-.07.16,18.12,18.12,0,0,0,1.41,7Z"/><path class="cls-7" d="M217.54,75.72a2.62,2.62,0,1,0,2.61,2.62A2.61,2.61,0,0,0,217.54,75.72Zm0,4.77a2.16,2.16,0,1,1,2.15-2.15A2.15,2.15,0,0,1,217.54,80.49Z"/><path class="cls-7" d="M221.48,80.37c.12-.27.19-.43.29-.71l1-.26a.6.6,0,0,0,.41-.55v-1a.59.59,0,0,0-.41-.55l-1-.26c-.12-.28-.18-.43-.29-.71l.5-.88a.56.56,0,0,0-.1-.69l-.72-.72a.55.55,0,0,0-.69-.09l-.87.49-.71-.29-.27-1a.58.58,0,0,0-.55-.41h-1a.55.55,0,0,0-.55.42l-.27,1-.7.29-.88-.51a.56.56,0,0,0-.69.1l-.73.72a.58.58,0,0,0-.09.69l.5.88c-.12.27-.18.43-.29.71l-1,.26a.59.59,0,0,0-.42.55v1a.57.57,0,0,0,.43.55l1,.26c.12.28.18.43.29.71l-.5.88a.56.56,0,0,0,.1.69l.72.72a.55.55,0,0,0,.69.09l.87-.49.71.29.27,1a.58.58,0,0,0,.55.41h1a.55.55,0,0,0,.55-.42l.27-1,.71-.29.87.5a.56.56,0,0,0,.7-.09l.72-.72a.58.58,0,0,0,.09-.69Zm.08,1.24-.72.73h0a.12.12,0,0,1-.13,0l-1.07-.61-.1,0-.88.35-.15.07-.32,1.18h0a.11.11,0,0,1-.11.07h-1a.13.13,0,0,1-.11-.08l-.32-1.19-.11,0-.87-.35-.15-.07-1.07.62h0a.13.13,0,0,1-.13,0l-.72-.73h0a.09.09,0,0,1,0-.12l.61-1.07,0-.1c-.14-.38-.21-.55-.36-.88l-.06-.15L212.49,79h0a.1.1,0,0,1-.07-.1v-1a.12.12,0,0,1,.08-.1l1.19-.33,0-.11c.14-.36.2-.52.35-.87l.06-.14-.61-1.08h0a.1.1,0,0,1,0-.12l.72-.73h0a.12.12,0,0,1,.13,0l1.07.61.1,0,.88-.35.15-.07.32-1.18h0a.11.11,0,0,1,.11-.07h1a.12.12,0,0,1,.11.08l.32,1.19.11,0,.87.35.15.07,1.07-.62h0a.13.13,0,0,1,.13,0l.72.73h0a.09.09,0,0,1,0,.12L221,76.25l0,.1c.14.38.22.55.36.88l.06.15,1.18.33a.12.12,0,0,1,.09.1v1a.12.12,0,0,1-.08.1l-1.19.33,0,.11c-.14.36-.21.52-.36.87l-.06.14.61,1.08h0A.1.1,0,0,1,221.56,81.61Z"/><path class="cls-7" d="M272.87,79.09a2.61,2.61,0,1,0-2.61-2.61A2.61,2.61,0,0,0,272.87,79.09Zm0-4.76a2.15,2.15,0,1,1-2.15,2.15A2.16,2.16,0,0,1,272.87,74.33Z"/><path class="cls-7" d="M267.71,77.54l1,.27c.11.27.18.42.29.7l-.5.88a.54.54,0,0,0,.09.69l.73.73a.57.57,0,0,0,.69.09l.87-.5.71.29.27,1a.58.58,0,0,0,.55.42h1a.57.57,0,0,0,.55-.43l.26-1c.28-.12.43-.19.71-.29l.88.5a.56.56,0,0,0,.69-.1l.72-.72a.57.57,0,0,0,.1-.69l-.5-.87.29-.72,1-.26a.59.59,0,0,0,.41-.55V76a.58.58,0,0,0-.41-.55h0l-1-.27c-.11-.27-.18-.43-.28-.71l.5-.88a.56.56,0,0,0-.1-.69l-.72-.72a.56.56,0,0,0-.69-.09l-.87.5-.72-.3-.26-1a.59.59,0,0,0-.55-.41h-1a.56.56,0,0,0-.56.42l-.26,1-.71.29-.88-.5a.56.56,0,0,0-.69.09l-.72.73a.55.55,0,0,0-.09.69l.49.87c-.11.27-.18.43-.29.71l-1,.27a.58.58,0,0,0-.41.55v1A.56.56,0,0,0,267.71,77.54Zm0-1.58a.12.12,0,0,1,.08-.11l1.08-.3a.19.19,0,0,0,.15-.14c.14-.36.21-.52.36-.86v0a.2.2,0,0,0,0-.2l-.55-1h0a.1.1,0,0,1,0-.12l.72-.72h0a.09.09,0,0,1,.12,0l1,.55a.21.21,0,0,0,.19,0l.89-.36,0,0a.2.2,0,0,0,.13-.15l.3-1.08h0a.1.1,0,0,1,.11-.07h1a.15.15,0,0,1,.11.08l.29,1.08a.21.21,0,0,0,.14.15l.86.35.05,0a.22.22,0,0,0,.21,0l1-.55h0a.1.1,0,0,1,.12,0l.73.72h0a.1.1,0,0,1,0,.12l-.56,1a.23.23,0,0,0,0,.2c.14.37.21.53.36.88v0a.21.21,0,0,0,.16.13l1.07.3A.11.11,0,0,1,278,76v1a.12.12,0,0,1-.08.11l-1.07.29a.25.25,0,0,0-.16.14c-.14.37-.21.53-.35.87l0,0a.26.26,0,0,0,0,.21l.56,1h0a.09.09,0,0,1,0,.12l-.73.73h0s-.08,0-.12,0l-1-.56a.23.23,0,0,0-.2,0c-.38.14-.54.21-.89.36l0,0a.22.22,0,0,0-.13.15l-.29,1.07h0a.09.09,0,0,1-.1.07h-1a.11.11,0,0,1-.11-.08l-.3-1.07a.25.25,0,0,0-.14-.16c-.36-.14-.52-.2-.86-.35l-.05,0-.09,0a.2.2,0,0,0-.11,0l-1,.56h0s-.08,0-.12,0l-.72-.73h0s0-.07,0-.12l.55-1a.24.24,0,0,0,0-.2c-.15-.38-.21-.54-.36-.89l0,0a.24.24,0,0,0-.15-.13l-1.08-.29h0a.1.1,0,0,1-.07-.1Z"/><path class="cls-7" d="M283.79,86.48a1.5,1.5,0,0,0-1.9-.78c-.85.23-2.62.74-3.39,1a1.29,1.29,0,0,0-1.29-1.08h-4.63a19.07,19.07,0,0,0-3-2.53,15.56,15.56,0,0,0-3.07.24V82.16a.54.54,0,0,0-.54-.54h-3.79a.54.54,0,0,0-.54.54v8.16a.54.54,0,0,0,.54.54H266a.54.54,0,0,0,.54-.54v-.93l6,2a3.35,3.35,0,0,0,1.22.22,4.94,4.94,0,0,0,1.72-.33l7.84-3.59A.93.93,0,0,0,283.79,86.48Zm-17.73,3.84a.09.09,0,0,1-.08.08h-3.79a.09.09,0,0,1-.08-.08V82.16a.08.08,0,0,1,.08-.07H266a.08.08,0,0,1,.08.07Zm17-3-7.83,3.58a3.8,3.8,0,0,1-2.58.11l-6.13-2.07V83.75a15.7,15.7,0,0,1,3-.25A22.2,22.2,0,0,1,272.33,86a.23.23,0,0,0,.16.06h4.72a.83.83,0,0,1,.85.79c0,.37-.2.79-.87.87l-5.53.37a.23.23,0,0,0-.21.24.24.24,0,0,0,.23.22h0l5.54-.37h0a1.33,1.33,0,0,0,1.25-1l3.52-1a1.07,1.07,0,0,1,1.35.5A.48.48,0,0,1,283.06,87.28Z"/><circle class="cls-7" cx="264.09" cy="89.25" r="0.38"/><path class="cls-7" d="M314.51,83a4.45,4.45,0,1,0-4.46-4.45A4.46,4.46,0,0,0,314.51,83Zm0-8.44a4,4,0,1,1-4,4A4,4,0,0,1,314.51,74.54Z"/><path class="cls-7" d="M322.57,89.88,319.73,83l2.56-1a.24.24,0,0,0,.12-.31l-1.28-3.09,1.28-3.09a.23.23,0,0,0-.12-.3L319.2,73.9l-1.29-3.09a.22.22,0,0,0-.3-.13L314.52,72l-3.09-1.28a.28.28,0,0,0-.18,0,.25.25,0,0,0-.12.13l-1.28,3.09-3.09,1.28a.25.25,0,0,0-.13.12.28.28,0,0,0,0,.18l1.28,3.09-1.28,3.09a.24.24,0,0,0,.13.31l2.53,1-2.85,6.87a.25.25,0,0,0,.05.25.22.22,0,0,0,.25.05L310,88.82l1.38,3.33a.23.23,0,0,0,.42,0l2.68-6.45,2.67,6.45a.23.23,0,0,0,.42,0L319,88.82l3.29,1.36a.22.22,0,0,0,.25-.05A.25.25,0,0,0,322.57,89.88ZM308.38,78.66a.28.28,0,0,0,0-.18l-1.23-3,3-1.23a.24.24,0,0,0,.13-.13l1.23-3,3,1.23a.28.28,0,0,0,.18,0l3-1.23,1.23,3a.2.2,0,0,0,.12.13l3,1.23-1.23,3a.28.28,0,0,0,0,.18l1.23,3-3,1.23a.2.2,0,0,0-.12.12l-1.23,3-3-1.23-.09,0-.09,0-3,1.23-1.23-3a.25.25,0,0,0-.13-.12l-3-1.23Zm3.24,12.8-1.26-3a.22.22,0,0,0-.3-.12l-3,1.23,2.63-6.35.14.06,1.28,3.09a.22.22,0,0,0,.3.12l2.73-1.13ZM319,88.31a.19.19,0,0,0-.18,0,.2.2,0,0,0-.12.12l-1.26,3-2.55-6.14,2.77,1.14.09,0a.22.22,0,0,0,.21-.14l1.29-3.09.1,0,2.63,6.34Z"/><path d="M392,17.14V10.6h4.34v1.14h-2.95V13.3h2.66v1.14h-2.66v2.7Z"/><path d="M397.75,11.6a.73.73,0,0,1-.51-.2.66.66,0,0,1,0-1,.76.76,0,0,1,1,0,.66.66,0,0,1,0,1A.73.73,0,0,1,397.75,11.6Zm-.68,5.54V12.23h1.36v4.91Z"/><path d="M399.35,17.14V12.23h1.32v.86h.05a1.23,1.23,0,0,1,.45-.69,1.16,1.16,0,0,1,.73-.24,2,2,0,0,1,.43.05v1.21l-.27-.06-.31,0a1.05,1.05,0,0,0-.75.29,1,1,0,0,0-.29.73v2.78Z"/><path d="M402.85,17.14V12.23h1.3v.87h.06a1.3,1.3,0,0,1,.51-.68,1.6,1.6,0,0,1,1.72,0,1.22,1.22,0,0,1,.47.68h0a1.3,1.3,0,0,1,.55-.68,1.66,1.66,0,0,1,.93-.25,1.51,1.51,0,0,1,1.12.43,1.74,1.74,0,0,1,.43,1.24v3.3h-1.36v-3a.81.81,0,0,0-.22-.62.77.77,0,0,0-.54-.2.73.73,0,0,0-.58.24.87.87,0,0,0-.21.61v3h-1.32V14.08a.85.85,0,0,0-.2-.58.74.74,0,0,0-.55-.21.72.72,0,0,0-.56.25.88.88,0,0,0-.23.65v3Z"/><path d="M415,13.63l-1.24.08a.76.76,0,0,0-.26-.41.89.89,0,0,0-.56-.17,1,1,0,0,0-.54.14.37.37,0,0,0-.21.35.35.35,0,0,0,.13.3,1.21,1.21,0,0,0,.49.19l.89.18c.94.19,1.41.64,1.42,1.33a1.37,1.37,0,0,1-.29.85A1.79,1.79,0,0,1,414,17a2.88,2.88,0,0,1-1.13.21,2.64,2.64,0,0,1-1.55-.41,1.57,1.57,0,0,1-.68-1.11l1.34-.07a.66.66,0,0,0,.3.45,1.05,1.05,0,0,0,.59.16,1,1,0,0,0,.58-.15.4.4,0,0,0,.22-.35c0-.25-.21-.41-.63-.49l-.85-.17c-1-.19-1.42-.66-1.42-1.4a1.29,1.29,0,0,1,.57-1.12,2.5,2.5,0,0,1,1.51-.41,2.47,2.47,0,0,1,1.47.39A1.47,1.47,0,0,1,415,13.63Z"/><path d="M417.69,17.14V12.23H419v.87h.06a1.3,1.3,0,0,1,.51-.68,1.59,1.59,0,0,1,1.71,0,1.19,1.19,0,0,1,.48.68h.05a1.33,1.33,0,0,1,.54-.68,1.72,1.72,0,0,1,.94-.25,1.51,1.51,0,0,1,1.12.43,1.74,1.74,0,0,1,.43,1.24v3.3h-1.36v-3a.85.85,0,0,0-.22-.62.8.8,0,0,0-.54-.2.73.73,0,0,0-.58.24.87.87,0,0,0-.21.61v3H420.6V14.08a.81.81,0,0,0-.21-.58.7.7,0,0,0-.54-.21.75.75,0,0,0-.57.25.92.92,0,0,0-.23.65v3Z"/><path d="M428,17.24a2.52,2.52,0,0,1-1.29-.32,2.19,2.19,0,0,1-.84-.89,2.92,2.92,0,0,1-.29-1.32,3,3,0,0,1,.29-1.34,2.16,2.16,0,0,1,.84-.88,2.74,2.74,0,0,1,2.57,0,2.16,2.16,0,0,1,.84.88,3,3,0,0,1,.29,1.34,2.92,2.92,0,0,1-.29,1.32,2.19,2.19,0,0,1-.84.89A2.51,2.51,0,0,1,428,17.24Zm0-1.06a.86.86,0,0,0,.77-.42,2.31,2.31,0,0,0,0-2.13.86.86,0,0,0-.77-.42.84.84,0,0,0-.77.42,2,2,0,0,0-.27,1.07,1.94,1.94,0,0,0,.27,1.06A.84.84,0,0,0,428,16.18Z"/><path d="M435.66,12.23l-1.72,4.91h-1.53l-1.72-4.91h1.44l1,3.51h.05l1-3.51Z"/><path d="M438.41,17.24a2.66,2.66,0,0,1-1.3-.31,2.1,2.1,0,0,1-.84-.88,3.12,3.12,0,0,1,0-2.67,2.1,2.1,0,0,1,.83-.89,2.34,2.34,0,0,1,1.26-.32,2.52,2.52,0,0,1,1.17.27,2.07,2.07,0,0,1,.83.83,2.89,2.89,0,0,1,.3,1.39V15h-3.34a1.2,1.2,0,0,0,.3.86,1.07,1.07,0,0,0,.81.32,1.2,1.2,0,0,0,.59-.14.8.8,0,0,0,.36-.43l1.25.08a1.69,1.69,0,0,1-.72,1.1A2.58,2.58,0,0,1,438.41,17.24Zm-1.09-3h2.06a1,1,0,0,0-1-1,1,1,0,0,0-.75.3A1,1,0,0,0,437.32,14.19Z"/><path d="M443.18,17.22a1.86,1.86,0,0,1-1-.29,1.94,1.94,0,0,1-.71-.85,3.22,3.22,0,0,1-.27-1.39,3.21,3.21,0,0,1,.27-1.4,1.9,1.9,0,0,1,.73-.84,1.81,1.81,0,0,1,1-.28,1.47,1.47,0,0,1,.69.14,1.27,1.27,0,0,1,.44.34,1.56,1.56,0,0,1,.26.41h.05V10.6H446v6.54h-1.34v-.79h-.06a1.66,1.66,0,0,1-.26.41,1.47,1.47,0,0,1-.46.33A1.51,1.51,0,0,1,443.18,17.22Zm.43-1.08a.85.85,0,0,0,.76-.4,1.86,1.86,0,0,0,.27-1.05,1.9,1.9,0,0,0-.26-1,.88.88,0,0,0-.77-.39.87.87,0,0,0-.77.4,1.88,1.88,0,0,0-.26,1,1.93,1.93,0,0,0,.26,1A.88.88,0,0,0,443.61,16.14Z"/><path d="M452,15.05V12.23h1.36v4.91H452v-.89H452a1.41,1.41,0,0,1-.56.69,1.57,1.57,0,0,1-.93.26,1.54,1.54,0,0,1-1.2-.49,1.94,1.94,0,0,1-.47-1.35V12.23h1.37v2.88a1,1,0,0,0,.23.69.79.79,0,0,0,.62.25.91.91,0,0,0,.93-1Z"/><path d="M454.26,19V12.23h1.34v.83h.06a1.87,1.87,0,0,1,.26-.41,1.41,1.41,0,0,1,.45-.34,1.47,1.47,0,0,1,.69-.14,1.81,1.81,0,0,1,1,.28,1.88,1.88,0,0,1,.72.84,3.06,3.06,0,0,1,.28,1.4,3.22,3.22,0,0,1-.27,1.39,2,2,0,0,1-.71.85,1.89,1.89,0,0,1-1,.29,1.42,1.42,0,0,1-1.13-.46,2.07,2.07,0,0,1-.27-.41h0V19Zm1.33-4.29a1.86,1.86,0,0,0,.27,1.05.93.93,0,0,0,1.53,0,1.85,1.85,0,0,0,.27-1,1.8,1.8,0,0,0-.27-1,.85.85,0,0,0-.77-.4.87.87,0,0,0-.76.39A1.82,1.82,0,0,0,455.59,14.69Z"/><path d="M463.91,17.24a2.52,2.52,0,0,1-1.29-.32,2.18,2.18,0,0,1-.83-.9,2.78,2.78,0,0,1-.29-1.31,2.93,2.93,0,0,1,.29-1.33,2.16,2.16,0,0,1,.83-.89,2.42,2.42,0,0,1,1.29-.32,2.6,2.6,0,0,1,1.12.23,1.84,1.84,0,0,1,.77.66,2,2,0,0,1,.31,1h-1.29a1,1,0,0,0-.28-.6.85.85,0,0,0-.61-.22.91.91,0,0,0-.76.38,1.76,1.76,0,0,0-.29,1.08,1.76,1.76,0,0,0,.29,1.08.89.89,0,0,0,.76.39.87.87,0,0,0,.59-.21,1,1,0,0,0,.3-.61h1.29a2.1,2.1,0,0,1-.31,1,1.81,1.81,0,0,1-.75.67A2.52,2.52,0,0,1,463.91,17.24Z"/><path d="M469,17.24a2.52,2.52,0,0,1-1.29-.32,2.1,2.1,0,0,1-.83-.89,2.79,2.79,0,0,1-.3-1.32,2.88,2.88,0,0,1,.3-1.34,2.07,2.07,0,0,1,.83-.88,2.76,2.76,0,0,1,2.58,0,2.07,2.07,0,0,1,.83.88,2.88,2.88,0,0,1,.3,1.34,2.79,2.79,0,0,1-.3,1.32,2.1,2.1,0,0,1-.83.89A2.52,2.52,0,0,1,469,17.24Zm0-1.06a.84.84,0,0,0,.76-.42,1.94,1.94,0,0,0,.26-1.06,2,2,0,0,0-.26-1.07.84.84,0,0,0-.76-.42.85.85,0,0,0-.78.42,2.31,2.31,0,0,0,0,2.13A.85.85,0,0,0,469,16.18Z"/><path d="M473.51,14.3v2.84h-1.36V10.6h1.32v2.5h.06a1.39,1.39,0,0,1,.53-.68,1.83,1.83,0,0,1,2.17.24,1.9,1.9,0,0,1,.46,1.36v3.12h-1.36V14.26a1,1,0,0,0-.23-.71.82.82,0,0,0-.65-.25,1,1,0,0,0-.68.26A1,1,0,0,0,473.51,14.3Z"/><path d="M479.81,17.24a2.52,2.52,0,0,1-1.29-.32,2.1,2.1,0,0,1-.83-.89,2.79,2.79,0,0,1-.3-1.32,2.88,2.88,0,0,1,.3-1.34,2.07,2.07,0,0,1,.83-.88,2.76,2.76,0,0,1,2.58,0,2.07,2.07,0,0,1,.83.88,2.88,2.88,0,0,1,.3,1.34,2.79,2.79,0,0,1-.3,1.32,2.1,2.1,0,0,1-.83.89A2.52,2.52,0,0,1,479.81,17.24Zm0-1.06a.84.84,0,0,0,.76-.42,1.94,1.94,0,0,0,.26-1.06,2,2,0,0,0-.26-1.07.84.84,0,0,0-.76-.42.85.85,0,0,0-.78.42,2.31,2.31,0,0,0,0,2.13A.85.85,0,0,0,479.82,16.18Z"/><path d="M482.94,17.14V12.23h1.32v.86h.06a1.14,1.14,0,0,1,.45-.69,1.16,1.16,0,0,1,.72-.24,1.88,1.88,0,0,1,.43.05v1.21l-.26-.06-.31,0a1.05,1.05,0,0,0-.75.29,1,1,0,0,0-.29.73v2.78Z"/><path d="M489.06,12.23v1h-.92v2.38c0,.19,0,.32.13.38a.48.48,0,0,0,.33.1.62.62,0,0,0,.19,0l.15,0,.21,1-.28.08-.46.05a1.79,1.79,0,0,1-1.19-.32,1.29,1.29,0,0,1-.44-1.08V13.25h-.67v-1h.67V11.06h1.36v1.17Z"/><path d="M493.86,13.63l-1.24.08a.76.76,0,0,0-.26-.41.9.9,0,0,0-.57-.17,1,1,0,0,0-.53.14.38.38,0,0,0-.22.35.39.39,0,0,0,.14.3,1.21,1.21,0,0,0,.49.19l.88.18c.95.19,1.42.64,1.42,1.33a1.36,1.36,0,0,1-.28.85,1.86,1.86,0,0,1-.77.56,2.88,2.88,0,0,1-1.13.21,2.69,2.69,0,0,1-1.56-.41,1.56,1.56,0,0,1-.67-1.11l1.34-.07a.68.68,0,0,0,.29.45,1.11,1.11,0,0,0,.6.16,1,1,0,0,0,.58-.15.42.42,0,0,0,.22-.35c0-.25-.22-.41-.63-.49l-.85-.17c-.95-.19-1.42-.66-1.42-1.4a1.29,1.29,0,0,1,.57-1.12,3,3,0,0,1,3,0A1.54,1.54,0,0,1,493.86,13.63Z"/><path d="M392.39,26.38a7.39,7.39,0,0,1,.32-2.22,6.88,6.88,0,0,1,.9-1.87h.66a4.42,4.42,0,0,0-.55,1.09,8.63,8.63,0,0,0-.4,1.46,8,8,0,0,0,0,3.08,8.63,8.63,0,0,0,.4,1.46,4.6,4.6,0,0,0,.55,1.09h-.66a6.88,6.88,0,0,1-.9-1.87A7.39,7.39,0,0,1,392.39,26.38Z"/><path d="M395.25,29.14V22.6h2.21a2.56,2.56,0,0,1,1.26.27,1.81,1.81,0,0,1,.73.75,2.26,2.26,0,0,1,.24,1.05,2.31,2.31,0,0,1-.24,1,1.73,1.73,0,0,1-.72.75,2.46,2.46,0,0,1-1.25.28H396v2.39Zm.79-3.09h1.41a1.36,1.36,0,0,0,1.12-.4,1.43,1.43,0,0,0,.34-1,1.28,1.28,0,0,0-1.47-1.37H396Z"/><path d="M402.07,29.26a1.92,1.92,0,0,1-.84-.18,1.39,1.39,0,0,1-.83-1.33,1.31,1.31,0,0,1,.17-.69,1.24,1.24,0,0,1,.44-.41,2.41,2.41,0,0,1,.62-.23c.22-.05.45-.09.68-.12l.72-.08a1.3,1.3,0,0,0,.41-.11.26.26,0,0,0,.13-.25v0a1,1,0,0,0-.26-.73,1,1,0,0,0-.77-.27,1.32,1.32,0,0,0-.85.24,1.39,1.39,0,0,0-.43.5l-.72-.25a1.79,1.79,0,0,1,.51-.7,2,2,0,0,1,.71-.35,2.76,2.76,0,0,1,.75-.1,3.74,3.74,0,0,1,.54,0,1.91,1.91,0,0,1,.6.23,1.35,1.35,0,0,1,.48.52,2,2,0,0,1,.19.94v3.23h-.75v-.66h0a1.33,1.33,0,0,1-.25.34,1.59,1.59,0,0,1-.48.31A2,2,0,0,1,402.07,29.26Zm.12-.68a1.5,1.5,0,0,0,.76-.18,1.17,1.17,0,0,0,.46-.45,1.14,1.14,0,0,0,.16-.59v-.69a.4.4,0,0,1-.21.11,3,3,0,0,1-.37.08l-.41.06-.31,0a3,3,0,0,0-.55.13.89.89,0,0,0-.41.25.73.73,0,0,0,.14,1.05A1.29,1.29,0,0,0,402.19,28.58Z"/><path d="M409.18,25.33l-.68.19a1.22,1.22,0,0,0-.33-.48,1.06,1.06,0,0,0-.73-.22,1.28,1.28,0,0,0-.75.21.61.61,0,0,0-.29.52.51.51,0,0,0,.2.44,1.84,1.84,0,0,0,.64.28l.73.17c.87.22,1.3.66,1.3,1.33a1.27,1.27,0,0,1-.24.76,1.62,1.62,0,0,1-.67.52,2.43,2.43,0,0,1-1,.19,2.26,2.26,0,0,1-1.24-.32,1.46,1.46,0,0,1-.62-1l.71-.18a1,1,0,0,0,1.14.79,1.42,1.42,0,0,0,.84-.23.65.65,0,0,0,.31-.54c0-.35-.24-.58-.73-.69l-.82-.19a1.93,1.93,0,0,1-1-.5,1.17,1.17,0,0,1-.32-.84,1.19,1.19,0,0,1,.24-.74,1.54,1.54,0,0,1,.64-.5,2.25,2.25,0,0,1,.92-.18,1.81,1.81,0,0,1,1.15.32A1.7,1.7,0,0,1,409.18,25.33Z"/><path d="M412.54,24.23v.64h-1v2.86a1,1,0,0,0,.09.48.41.41,0,0,0,.24.21.87.87,0,0,0,.32.06l.2,0,.13,0,.15.68-.21.05a1.69,1.69,0,0,1-.35,0,1.5,1.5,0,0,1-.62-.13,1.16,1.16,0,0,1-.51-.42,1.22,1.22,0,0,1-.2-.71V24.87H410v-.64h.74V23.06h.76v1.17Z"/><path d="M418.5,22.6v6.54h-.79V23.43h0l-1.6,1.06v-.81l1.64-1.08Z"/><path d="M420.38,29.14v-.57l2.16-2.37c.26-.28.46-.52.63-.72a3,3,0,0,0,.36-.58,1.47,1.47,0,0,0,.12-.58,1,1,0,0,0-.36-.82,1.33,1.33,0,0,0-.89-.3,1.17,1.17,0,0,0-1.24,1.24h-.75a2,2,0,0,1,.26-1,1.84,1.84,0,0,1,.73-.68,2.17,2.17,0,0,1,1-.24,2.13,2.13,0,0,1,1,.24,1.88,1.88,0,0,1,.69.65,1.73,1.73,0,0,1,.26.92,2.17,2.17,0,0,1-.13.71,3.33,3.33,0,0,1-.45.76c-.21.28-.51.62-.88,1l-1.47,1.58v.05h3v.7Z"/><path d="M428.37,29.14V24.23h.73V25h.06a1.26,1.26,0,0,1,.5-.61,1.46,1.46,0,0,1,.82-.22,1.36,1.36,0,0,1,1.32.83h.05a1.43,1.43,0,0,1,.56-.61,1.78,1.78,0,0,1,.91-.22,1.49,1.49,0,0,1,1.08.41,1.76,1.76,0,0,1,.41,1.28v3.28h-.75V25.86a.91.91,0,0,0-.3-.78,1.07,1.07,0,0,0-.7-.23,1,1,0,0,0-.8.31,1.1,1.1,0,0,0-.28.78v3.2h-.77V25.78a.9.9,0,0,0-.27-.68,1,1,0,0,0-.7-.25,1.06,1.06,0,0,0-.55.15,1.16,1.16,0,0,0-.41.44,1.28,1.28,0,0,0-.15.63v3.07Z"/><path d="M438.19,29.24a2.05,2.05,0,0,1-1.95-1.2,3.07,3.07,0,0,1-.28-1.33,3.11,3.11,0,0,1,.28-1.34,2.25,2.25,0,0,1,.78-.89,2.18,2.18,0,0,1,1.17-.31,2,2,0,0,1,1.94,1.2,3,3,0,0,1,.28,1.34,2.93,2.93,0,0,1-.28,1.33,2.05,2.05,0,0,1-.78.89A2.12,2.12,0,0,1,438.19,29.24Zm0-.67a1.31,1.31,0,0,0,.83-.26,1.51,1.51,0,0,0,.48-.68,2.51,2.51,0,0,0,.16-.92,2.54,2.54,0,0,0-.16-.92,1.46,1.46,0,0,0-.48-.68,1.45,1.45,0,0,0-1.66,0,1.46,1.46,0,0,0-.48.68,2.54,2.54,0,0,0-.16.92,2.51,2.51,0,0,0,.16.92,1.51,1.51,0,0,0,.48.68A1.31,1.31,0,0,0,438.19,28.57Z"/><path d="M442.32,26.19v2.95h-.76V24.23h.73V25h.07a1.37,1.37,0,0,1,.52-.6,1.84,1.84,0,0,1,2.11.23,1.87,1.87,0,0,1,.46,1.39v3.12h-.75V26.07a1.29,1.29,0,0,0-.3-.9,1.06,1.06,0,0,0-.83-.32,1.21,1.21,0,0,0-.9.35A1.34,1.34,0,0,0,442.32,26.19Z"/><path d="M449,24.23v.64h-1.05v2.86a1,1,0,0,0,.09.48.47.47,0,0,0,.24.21.87.87,0,0,0,.32.06l.2,0,.13,0,.16.68-.22.05a1.69,1.69,0,0,1-.35,0,1.5,1.5,0,0,1-.62-.13,1.28,1.28,0,0,1-.51-.42,1.22,1.22,0,0,1-.2-.71V24.87h-.74v-.64h.74V23.06h.76v1.17Z"/><path d="M450.86,26.19v2.95h-.76V22.6h.76V25h.06a1.47,1.47,0,0,1,.52-.61,1.69,1.69,0,0,1,.93-.22,1.66,1.66,0,0,1,1.21.45A1.88,1.88,0,0,1,454,26v3.12h-.75V26.07a1.25,1.25,0,0,0-.3-.9,1.09,1.09,0,0,0-.84-.32,1.28,1.28,0,0,0-.93.35A1.31,1.31,0,0,0,450.86,26.19Z"/><path d="M458.9,25.33l-.68.19a1.34,1.34,0,0,0-.33-.48,1.08,1.08,0,0,0-.73-.22,1.28,1.28,0,0,0-.75.21.6.6,0,0,0-.3.52.52.52,0,0,0,.21.44,1.76,1.76,0,0,0,.64.28l.72.17c.87.22,1.31.66,1.31,1.33a1.27,1.27,0,0,1-.24.76,1.65,1.65,0,0,1-.68.52,2.38,2.38,0,0,1-1,.19,2.26,2.26,0,0,1-1.24-.32,1.48,1.48,0,0,1-.63-1l.72-.18a1,1,0,0,0,1.14.79,1.42,1.42,0,0,0,.84-.23.67.67,0,0,0,.31-.54c0-.35-.24-.58-.73-.69l-.82-.19a1.92,1.92,0,0,1-1-.5,1.16,1.16,0,0,1-.31-.84,1.25,1.25,0,0,1,.23-.74,1.58,1.58,0,0,1,.65-.5,2.25,2.25,0,0,1,.92-.18,1.81,1.81,0,0,1,1.15.32A1.77,1.77,0,0,1,458.9,25.33Z"/><path d="M461.74,26.38a7.39,7.39,0,0,1-.32,2.22,6.88,6.88,0,0,1-.9,1.87h-.66a4.6,4.6,0,0,0,.55-1.09,8.63,8.63,0,0,0,.4-1.46,8,8,0,0,0,0-3.08,8.63,8.63,0,0,0-.4-1.46,4.42,4.42,0,0,0-.55-1.09h.66a6.88,6.88,0,0,1,.9,1.87A7.39,7.39,0,0,1,461.74,26.38Z"/><path d="M394.38,93.21a9.75,9.75,0,0,1,1.44-5.43,12.38,12.38,0,0,1,3.55-3.65,55.73,55.73,0,0,1,5.42-3,41.81,41.81,0,0,0,4.66-2.5c2.3-1.49,4.08-3.6,4.08-6.53,0-4.27-2.83-7-7.39-7-2.74,0-4.75.77-5.95,2.26a8.29,8.29,0,0,0-1.78,5.38,9.51,9.51,0,0,0,.29,2.49l-4.28-.33a14.73,14.73,0,0,1-.19-2.16c0-5.57,3.36-11.33,12-11.33,6.62,0,11.23,4.27,11.23,10.56A9.88,9.88,0,0,1,416,77.46c-1.87,2.93-4.51,4.56-8.74,6.67-1.77.87-3.17,1.64-4.27,2.31-2.11,1.34-3.89,3.17-4.32,5.61h18.82v3.7H394.38Z"/><path d="M420.44,85.81l3.94-.62c-.15,4.61,2.73,7.58,7.29,7.58,5.19,0,8.45-4.22,9-12.72a11.15,11.15,0,0,1-9.07,4.42,11.28,11.28,0,0,1-11.52-11.38,11.82,11.82,0,0,1,12-11.66c7.35,0,12.58,5.23,12.58,15.89,0,12.33-4.75,19.15-13,19.15C425.29,96.47,420.54,92.1,420.44,85.81Zm3.46-12.67a8.07,8.07,0,0,0,16.13,0,7.92,7.92,0,0,0-7.93-8A8,8,0,0,0,423.9,73.14Z"/><path d="M450.06,83.75v.58c0,5.18,3.31,8.44,8.54,8.44,5,0,8.07-3.07,8.07-8,0-4.61-3.08-7.64-7.73-7.64a8.13,8.13,0,0,0-7.3,3.51l-3.5-1.15L450,62.15h19v3.69h-15.5l-1.06,10a10.22,10.22,0,0,1,6.82-2.26c6.72,0,11.37,4.52,11.37,11.19,0,7-4.8,11.71-11.95,11.71-7.34,0-12.38-4.66-12.38-11.42v-.68Z"/><path d="M25.32,112v6.55h-.79v-5.71h0l-1.6,1.06v-.81L24.53,112Z"/><path d="M29.33,118.62a1.91,1.91,0,0,1-1.68-.88,4.46,4.46,0,0,1-.59-2.48,4.39,4.39,0,0,1,.6-2.48,2,2,0,0,1,3.35,0,5.43,5.43,0,0,1,0,5A1.89,1.89,0,0,1,29.33,118.62Zm0-.7a1.24,1.24,0,0,0,1.12-.69,4.07,4.07,0,0,0,.39-2,4,4,0,0,0-.4-2,1.23,1.23,0,0,0-2.21,0,4,4,0,0,0-.4,2,4.07,4.07,0,0,0,.39,2A1.24,1.24,0,0,0,29.33,117.92Z"/><path d="M33.39,118.58a.57.57,0,0,1-.41-.17.56.56,0,0,1-.17-.4.58.58,0,0,1,.58-.58.56.56,0,0,1,.4.17A.53.53,0,0,1,34,118a.52.52,0,0,1-.17.4A.56.56,0,0,1,33.39,118.58Z"/><path d="M37.48,118.62a2.57,2.57,0,0,1-.81-.15,2,2,0,0,1-.73-.5,2.61,2.61,0,0,1-.54-1,4.93,4.93,0,0,1-.2-1.51,4.7,4.7,0,0,1,.64-2.68,2,2,0,0,1,1.74-1,2,2,0,0,1,1.37.49,2,2,0,0,1,.66,1.25h-.78a1.4,1.4,0,0,0-.42-.74,1.15,1.15,0,0,0-.83-.29,1.36,1.36,0,0,0-1.2.66,3.47,3.47,0,0,0-.44,1.87H36a1.92,1.92,0,0,1,.69-.64,1.82,1.82,0,0,1,.92-.23,1.92,1.92,0,0,1,1,.28,2,2,0,0,1,.75.77,2.17,2.17,0,0,1,.28,1.12,2.28,2.28,0,0,1-.27,1.11,2,2,0,0,1-.76.8A2.16,2.16,0,0,1,37.48,118.62Zm0-.7a1.34,1.34,0,0,0,.72-.2,1.55,1.55,0,0,0,.51-.54,1.61,1.61,0,0,0,.19-.76,1.53,1.53,0,0,0-.18-.74,1.41,1.41,0,0,0-.5-.53,1.34,1.34,0,0,0-.72-.2,1.32,1.32,0,0,0-.73.21,1.58,1.58,0,0,0-.52.54,1.56,1.56,0,0,0-.19.73,1.52,1.52,0,0,0,.18.73,1.42,1.42,0,0,0,.51.55A1.28,1.28,0,0,0,37.48,117.92Z"/><path d="M62.91,80.5v-.57l2.16-2.37c.25-.27.46-.52.62-.72a2.64,2.64,0,0,0,.37-.58,1.47,1.47,0,0,0,.12-.58,1,1,0,0,0-.36-.82,1.35,1.35,0,0,0-.89-.3,1.21,1.21,0,0,0-.91.34,1.23,1.23,0,0,0-.33.9h-.76a1.86,1.86,0,0,1,.27-1,1.75,1.75,0,0,1,.72-.68,2.2,2.2,0,0,1,1-.24,2.13,2.13,0,0,1,1,.24,1.78,1.78,0,0,1,.7.66,1.68,1.68,0,0,1,.25.91,1.94,1.94,0,0,1-.13.71,3.33,3.33,0,0,1-.45.76,13.48,13.48,0,0,1-.88,1L64,79.75v0h3v.7Z"/><path d="M68.56,80.5l2.92-5.79v0H68.11V74H72.3v.74l-2.91,5.8Z"/><path d="M74.05,80.55a.52.52,0,0,1-.4-.17.51.51,0,0,1-.17-.4.54.54,0,0,1,.17-.41.56.56,0,0,1,.4-.17.57.57,0,0,1,.41.17.58.58,0,0,1,.17.41.54.54,0,0,1-.17.4A.53.53,0,0,1,74.05,80.55Z"/><path d="M76.18,80.5l2.92-5.79v0H75.73V74h4.19v.74L77,80.5Z"/><path d="M103.8,60.36a2.83,2.83,0,0,1-1.12-.22,2,2,0,0,1-.79-.61,1.65,1.65,0,0,1-.31-.9h.8a1,1,0,0,0,.44.75,1.7,1.7,0,0,0,1,.27,1.59,1.59,0,0,0,1-.32,1,1,0,0,0,.4-.84,1.12,1.12,0,0,0-.4-.89,1.74,1.74,0,0,0-1.14-.34h-.53v-.7h.53a1.41,1.41,0,0,0,1-.31,1.15,1.15,0,0,0,0-1.63,1.2,1.2,0,0,0-.86-.3,1.53,1.53,0,0,0-.64.13,1.26,1.26,0,0,0-.49.35,1,1,0,0,0-.2.56h-.77a1.55,1.55,0,0,1,.31-.9,1.91,1.91,0,0,1,.76-.61,2.4,2.4,0,0,1,1-.22,2,2,0,0,1,1,.25,1.68,1.68,0,0,1,.9,1.5,1.51,1.51,0,0,1-.29.95,1.46,1.46,0,0,1-.78.54v.05a1.57,1.57,0,0,1,1,.52,1.62,1.62,0,0,1,.35,1.05,1.67,1.67,0,0,1-.29,1,2,2,0,0,1-.79.66A2.45,2.45,0,0,1,103.8,60.36Z"/><path d="M109.49,60.36a2.53,2.53,0,0,1-.8-.16,2,2,0,0,1-.74-.49,2.54,2.54,0,0,1-.53-1,4.68,4.68,0,0,1-.2-1.51,4.84,4.84,0,0,1,.63-2.69,2.05,2.05,0,0,1,3.78.8h-.78a1.63,1.63,0,0,0-.42-.75,1.21,1.21,0,0,0-.84-.29,1.35,1.35,0,0,0-1.19.67,3.36,3.36,0,0,0-.44,1.86H108a1.89,1.89,0,0,1,.69-.63,1.8,1.8,0,0,1,.92-.24,2,2,0,0,1,1,.28,2.21,2.21,0,0,1,.75.77,2.42,2.42,0,0,1,0,2.24,2.11,2.11,0,0,1-.77.8A2.23,2.23,0,0,1,109.49,60.36Zm0-.71a1.32,1.32,0,0,0,.73-.2,1.37,1.37,0,0,0,.5-.54,1.47,1.47,0,0,0,.19-.75,1.53,1.53,0,0,0-.18-.74,1.41,1.41,0,0,0-.5-.53,1.21,1.21,0,0,0-.71-.2,1.3,1.3,0,0,0-.73.21,1.5,1.5,0,0,0-.52.54,1.57,1.57,0,0,0-.2.73,1.45,1.45,0,0,0,.19.73,1.55,1.55,0,0,0,.5.55A1.4,1.4,0,0,0,109.49,59.65Z"/><path d="M113.49,60.32a.56.56,0,0,1-.4-.17.53.53,0,0,1-.17-.41.58.58,0,0,1,.57-.57.53.53,0,0,1,.41.17.56.56,0,0,1,.17.4.58.58,0,0,1-.58.58Z"/><path d="M117.51,60.36a2.64,2.64,0,0,1-1.16-.24,1.89,1.89,0,0,1-.79-.65,1.6,1.6,0,0,1-.28-.94,1.81,1.81,0,0,1,.17-.77,1.66,1.66,0,0,1,.45-.59,1.34,1.34,0,0,1,.65-.3v0a1.29,1.29,0,0,1-.75-.53,1.56,1.56,0,0,1-.27-.93,1.52,1.52,0,0,1,.25-.89,1.76,1.76,0,0,1,.7-.62,2.26,2.26,0,0,1,1-.23,2.18,2.18,0,0,1,1,.23,1.79,1.79,0,0,1,.71.62,1.6,1.6,0,0,1,.26.89,1.65,1.65,0,0,1-.28.93,1.3,1.3,0,0,1-.74.53v0a1.35,1.35,0,0,1,.64.3,1.66,1.66,0,0,1,.45.59,1.81,1.81,0,0,1,.17.77,1.68,1.68,0,0,1-.28.94,1.89,1.89,0,0,1-.79.65A2.63,2.63,0,0,1,117.51,60.36Zm0-.71a1.62,1.62,0,0,0,1-.31,1.06,1.06,0,0,0,.39-.85,1.14,1.14,0,0,0-.19-.66,1.46,1.46,0,0,0-.51-.44,1.72,1.72,0,0,0-1.49,0,1.3,1.3,0,0,0-.51.44,1.14,1.14,0,0,0-.19.66,1.06,1.06,0,0,0,.39.85A1.61,1.61,0,0,0,117.51,59.65Zm0-3.1a1.28,1.28,0,0,0,.87-.31,1.08,1.08,0,0,0,.34-.82,1,1,0,0,0-.34-.8,1.24,1.24,0,0,0-.87-.3,1.3,1.3,0,0,0-.89.3,1,1,0,0,0-.33.8,1.05,1.05,0,0,0,.34.82A1.29,1.29,0,0,0,117.51,56.55Z"/><path d="M141,50.47v-.65l2.88-4.55h1v4.5h.89v.7h-.89v1.35h-.75V50.47Zm3.09-.7V46.28h-.06l-2.17,3.44v.05Z"/><path d="M149.11,51.91a1.93,1.93,0,0,1-1.68-.88,4.41,4.41,0,0,1-.59-2.49,4.36,4.36,0,0,1,.6-2.47,2,2,0,0,1,3.35,0,4.36,4.36,0,0,1,.6,2.47,4.41,4.41,0,0,1-.6,2.49A1.93,1.93,0,0,1,149.11,51.91Zm0-.71a1.22,1.22,0,0,0,1.11-.69,3.92,3.92,0,0,0,.4-2,4,4,0,0,0-.4-2,1.23,1.23,0,0,0-2.22,0,4.08,4.08,0,0,0-.4,2,4,4,0,0,0,.4,2A1.24,1.24,0,0,0,149.11,51.2Z"/><path d="M153.16,51.87a.56.56,0,0,1-.4-.17.57.57,0,0,1-.17-.41.56.56,0,0,1,.17-.4.52.52,0,0,1,.4-.17.53.53,0,0,1,.41.17.56.56,0,0,1,.17.4.58.58,0,0,1-.58.58Z"/><path d="M157.25,51.91a2.59,2.59,0,0,1-.8-.16,2,2,0,0,1-.74-.49,2.54,2.54,0,0,1-.53-.95,5,5,0,0,1-.2-1.51,4.75,4.75,0,0,1,.64-2.69,2,2,0,0,1,1.74-.94,2,2,0,0,1,1.37.48,2,2,0,0,1,.66,1.26h-.78a1.47,1.47,0,0,0-.42-.75,1.2,1.2,0,0,0-.83-.29,1.35,1.35,0,0,0-1.2.67,3.36,3.36,0,0,0-.44,1.86h.05a1.89,1.89,0,0,1,.69-.63,1.83,1.83,0,0,1,.92-.24,2,2,0,0,1,1,.28,2.14,2.14,0,0,1,1,1.9,2.34,2.34,0,0,1-.27,1.11,2.16,2.16,0,0,1-.76.8A2.27,2.27,0,0,1,157.25,51.91Zm0-.71A1.32,1.32,0,0,0,158,51a1.47,1.47,0,0,0,.51-.54,1.57,1.57,0,0,0,.18-.75,1.53,1.53,0,0,0-.18-.74,1.39,1.39,0,0,0-.49-.53,1.26,1.26,0,0,0-.72-.2,1.32,1.32,0,0,0-.73.21A1.5,1.5,0,0,0,156,49a1.42,1.42,0,0,0-.19.73,1.52,1.52,0,0,0,.68,1.28A1.4,1.4,0,0,0,157.25,51.2Z"/><path class="cls-6" d="M211.25,151.6h-4.33v-.7h.25a.32.32,0,0,0,.3-.19,1.48,1.48,0,0,0,.13-.45,1.82,1.82,0,0,0,0-.45l0-.75h-.72v-.73h.69l0-1.29a2,2,0,0,1,.26-1.16,1.79,1.79,0,0,1,.73-.69,2.1,2.1,0,0,1,.95-.22,2.06,2.06,0,0,1,.84.16,1.93,1.93,0,0,1,.63.44,1.52,1.52,0,0,1,.35.63,1.23,1.23,0,0,1,0,.71l-.74-.2a.82.82,0,0,0-.1-.57,1,1,0,0,0-.4-.35,1.27,1.27,0,0,0-1.14,0,1.08,1.08,0,0,0-.46.44,1.41,1.41,0,0,0-.19.78l.05,1.29h1.54v.73h-1.51l0,.75a3,3,0,0,1,0,.61,1.16,1.16,0,0,1-.2.48h3.1Z"/><path class="cls-6" d="M212.89,151.6l2.92-5.79v-.05h-3.37v-.7h4.19v.74l-2.91,5.8Z"/><path class="cls-6" d="M220,151.69a2.31,2.31,0,0,1-.8-.15,2.07,2.07,0,0,1-.74-.5,2.46,2.46,0,0,1-.53-.95,4.93,4.93,0,0,1-.2-1.51,4.81,4.81,0,0,1,.63-2.68,2.12,2.12,0,0,1,3.12-.46,2,2,0,0,1,.66,1.25h-.78a1.44,1.44,0,0,0-.42-.74,1.15,1.15,0,0,0-.83-.29,1.36,1.36,0,0,0-1.2.66,3.4,3.4,0,0,0-.44,1.87h0a2,2,0,0,1,.69-.64,2,2,0,0,1,2,0,2.13,2.13,0,0,1,.75.77,2.19,2.19,0,0,1,.28,1.12,2.28,2.28,0,0,1-.27,1.11,2,2,0,0,1-.76.8A2.09,2.09,0,0,1,220,151.69Zm0-.7a1.4,1.4,0,0,0,.73-.2,1.65,1.65,0,0,0,.51-.54,1.61,1.61,0,0,0,.18-.76,1.56,1.56,0,0,0-.18-.74,1.39,1.39,0,0,0-.49-.53,1.34,1.34,0,0,0-.72-.2,1.32,1.32,0,0,0-.73.21,1.52,1.52,0,0,0-.52.55,1.5,1.5,0,0,0-.2.73,1.49,1.49,0,0,0,.19.72,1.47,1.47,0,0,0,.5.55A1.32,1.32,0,0,0,220,151Z"/><path class="cls-6" d="M223.45,151.6v-6.54h.75v3.82h.09l2.15-2.19h.93l-2.07,2.1,2.22,2.81h-1l-1.83-2.32-.53.48v1.84Z"/><path class="cls-7" d="M211,65h-4.33v-.7h.25a.34.34,0,0,0,.3-.19,1.49,1.49,0,0,0,.14-.45,2.39,2.39,0,0,0,0-.45l0-.75h-.72v-.73h.7l-.05-1.29a2.08,2.08,0,0,1,.26-1.16,1.86,1.86,0,0,1,.73-.69,2.17,2.17,0,0,1,1-.22,2,2,0,0,1,.83.16,1.93,1.93,0,0,1,.63.44,1.66,1.66,0,0,1,.36.63,1.42,1.42,0,0,1,0,.71l-.75-.2a.82.82,0,0,0-.1-.57.91.91,0,0,0-.4-.35,1.25,1.25,0,0,0-.54-.12,1.27,1.27,0,0,0-.6.15,1.14,1.14,0,0,0-.46.44,1.5,1.5,0,0,0-.18.78l0,1.29h1.54v.73h-1.51l0,.75a2.41,2.41,0,0,1,0,.61,1,1,0,0,1-.2.48H211Z"/><path class="cls-7" d="M214.73,58.5V65h-.79V59.33h0l-1.59,1.06v-.81l1.63-1.08Z"/><path class="cls-7" d="M218.66,65.13a2.21,2.21,0,0,1-1-.22,2,2,0,0,1-.73-.62,1.59,1.59,0,0,1-.29-.88h.76a1.05,1.05,0,0,0,.41.73,1.35,1.35,0,0,0,.86.29,1.34,1.34,0,0,0,.72-.19,1.36,1.36,0,0,0,.49-.52,1.54,1.54,0,0,0,.18-.75,1.58,1.58,0,0,0-.18-.76,1.42,1.42,0,0,0-.52-.54,1.38,1.38,0,0,0-.74-.19,1.7,1.7,0,0,0-.62.09,1.67,1.67,0,0,0-.52.24l-.74-.09.39-3.22h3.41v.7h-2.74l-.23,1.93h0a1.81,1.81,0,0,1,.5-.27,2,2,0,0,1,.64-.1,2,2,0,0,1,1.07.29,2.06,2.06,0,0,1,.74.78,2.3,2.3,0,0,1,.27,1.13,2.19,2.19,0,0,1-.28,1.12,2.11,2.11,0,0,1-.77.77A2.13,2.13,0,0,1,218.66,65.13Z"/><path class="cls-7" d="M224.39,58.5V65h-.8V59.33h0L222,60.39v-.81l1.63-1.08Z"/><path class="cls-7" d="M226.28,65V58.5H227v3.82h.09l2.15-2.19h.93l-2.07,2.1L230.36,65h-1l-1.84-2.32-.53.48V65Z"/><path class="cls-7" d="M266.07,65h-4.33v-.7H262a.34.34,0,0,0,.29-.19,1.49,1.49,0,0,0,.14-.45,3.91,3.91,0,0,0,0-.45l0-.75h-.71v-.73h.69l0-1.29a2.08,2.08,0,0,1,.25-1.16,1.82,1.82,0,0,1,.74-.69,2.1,2.1,0,0,1,.95-.22,2,2,0,0,1,.83.16,1.93,1.93,0,0,1,.63.44,1.66,1.66,0,0,1,.36.63,1.32,1.32,0,0,1,0,.71l-.74-.2a.88.88,0,0,0-.1-.57,1,1,0,0,0-.41-.35,1.25,1.25,0,0,0-.54-.12,1.23,1.23,0,0,0-.59.15,1.1,1.1,0,0,0-.47.44,1.5,1.5,0,0,0-.18.78l.05,1.29h1.53v.73h-1.51l0,.75a2.41,2.41,0,0,1,0,.61,1,1,0,0,1-.2.48h3.1Z"/><path class="cls-7" d="M269.81,58.5V65H269V59.33h0l-1.6,1.06v-.81L269,58.5Z"/><path class="cls-7" d="M273.78,65.13a2.82,2.82,0,0,1-1.16-.23,1.94,1.94,0,0,1-.78-.65,1.63,1.63,0,0,1-.28-1,1.83,1.83,0,0,1,.16-.77,1.66,1.66,0,0,1,.46-.59,1.35,1.35,0,0,1,.64-.3v0a1.2,1.2,0,0,1-.74-.53,1.56,1.56,0,0,1-.28-.92,1.63,1.63,0,0,1,.25-.9,2,2,0,0,1,.71-.62,2.47,2.47,0,0,1,2,0,1.84,1.84,0,0,1,.7.62,1.62,1.62,0,0,1,0,1.82,1.2,1.2,0,0,1-.74.53v0a1.31,1.31,0,0,1,.64.3,1.92,1.92,0,0,1,.46.59,1.84,1.84,0,0,1,.17.77,1.64,1.64,0,0,1-.29,1,2,2,0,0,1-.78.65A2.82,2.82,0,0,1,273.78,65.13Zm0-.7a1.63,1.63,0,0,0,1.06-.32,1,1,0,0,0,.39-.84,1.22,1.22,0,0,0-.19-.66,1.34,1.34,0,0,0-.52-.45,1.58,1.58,0,0,0-.74-.16,1.61,1.61,0,0,0-.74.16,1.34,1.34,0,0,0-.52.45,1.21,1.21,0,0,0-.18.66,1,1,0,0,0,.38.84A1.63,1.63,0,0,0,273.78,64.43Zm0-3.11a1.22,1.22,0,0,0,.87-.31,1.11,1.11,0,0,0,0-1.61,1.25,1.25,0,0,0-.88-.3,1.27,1.27,0,0,0-.88.3,1.13,1.13,0,0,0,0,1.61A1.22,1.22,0,0,0,273.78,61.32Z"/><path class="cls-7" d="M279.28,65.13a2.21,2.21,0,0,1-1-.22,2,2,0,0,1-.73-.62,1.59,1.59,0,0,1-.29-.88H278a1.05,1.05,0,0,0,.41.73,1.35,1.35,0,0,0,.86.29,1.34,1.34,0,0,0,.72-.19,1.36,1.36,0,0,0,.49-.52,1.54,1.54,0,0,0,.18-.75,1.58,1.58,0,0,0-.18-.76,1.42,1.42,0,0,0-.52-.54,1.38,1.38,0,0,0-.74-.19,1.7,1.7,0,0,0-.62.09,1.67,1.67,0,0,0-.52.24l-.74-.09.4-3.22h3.4v.7h-2.74l-.23,1.93h0a1.81,1.81,0,0,1,.5-.27,2,2,0,0,1,.64-.1,2,2,0,0,1,1.07.29,2.06,2.06,0,0,1,.74.78,2.3,2.3,0,0,1,.27,1.13,2.19,2.19,0,0,1-.28,1.12,2.11,2.11,0,0,1-.77.77A2.13,2.13,0,0,1,279.28,65.13Z"/><path class="cls-7" d="M282.72,65V58.5h.75v3.82h.09l2.15-2.19h.93l-2.07,2.1L286.8,65h-1L284,62.72l-.53.48V65Z"/><path class="cls-7" d="M310.72,65h-4.33v-.7h.25a.34.34,0,0,0,.3-.19,1.48,1.48,0,0,0,.13-.45,1.82,1.82,0,0,0,0-.45l0-.75h-.72v-.73h.69l0-1.29a2.08,2.08,0,0,1,.26-1.16,1.79,1.79,0,0,1,.73-.69,2.14,2.14,0,0,1,1-.22,2,2,0,0,1,.83.16,1.93,1.93,0,0,1,.63.44,1.66,1.66,0,0,1,.36.63,1.32,1.32,0,0,1,0,.71l-.74-.2a.82.82,0,0,0-.1-.57.91.91,0,0,0-.4-.35,1.25,1.25,0,0,0-.54-.12,1.27,1.27,0,0,0-.6.15,1.08,1.08,0,0,0-.46.44,1.5,1.5,0,0,0-.19.78l.05,1.29h1.54v.73h-1.51l0,.75a2.41,2.41,0,0,1,0,.61,1,1,0,0,1-.2.48h3.1Z"/><path class="cls-7" d="M312.15,65v-.57l2.16-2.37q.39-.42.63-.72a2.56,2.56,0,0,0,.36-.58,1.47,1.47,0,0,0,.12-.58,1,1,0,0,0-.35-.82,1.36,1.36,0,0,0-.9-.3,1.17,1.17,0,0,0-1.24,1.24h-.75a2,2,0,0,1,.26-1,1.84,1.84,0,0,1,.73-.68,2.17,2.17,0,0,1,1-.24,2.13,2.13,0,0,1,1,.24,1.75,1.75,0,0,1,.69.66,1.69,1.69,0,0,1,.26.91,2.17,2.17,0,0,1-.13.71,3.33,3.33,0,0,1-.45.76c-.21.28-.51.62-.88,1l-1.47,1.57v0h3V65Z"/><path class="cls-7" d="M317.6,65v-.57l2.16-2.37.63-.72a3,3,0,0,0,.36-.58,1.47,1.47,0,0,0,.12-.58,1,1,0,0,0-.36-.82,1.35,1.35,0,0,0-.89-.3,1.16,1.16,0,0,0-1.24,1.24h-.76a1.86,1.86,0,0,1,.27-1,1.88,1.88,0,0,1,.72-.68,2.2,2.2,0,0,1,1-.24,2.08,2.08,0,0,1,1,.24,1.78,1.78,0,0,1,.7.66,1.68,1.68,0,0,1,.25.91,1.94,1.94,0,0,1-.13.71,2.93,2.93,0,0,1-.44.76c-.22.28-.51.62-.88,1l-1.47,1.57v0h3V65Z"/><path class="cls-7" d="M325.26,65.13a2.68,2.68,0,0,1-1.13-.22,1.82,1.82,0,0,1-.78-.6,1.59,1.59,0,0,1-.32-.9h.81a1,1,0,0,0,.43.74,1.63,1.63,0,0,0,1,.28,1.65,1.65,0,0,0,1-.32,1,1,0,0,0,.41-.84,1.13,1.13,0,0,0-.4-.89,1.72,1.72,0,0,0-1.15-.34h-.52v-.71h.52a1.39,1.39,0,0,0,.95-.31,1,1,0,0,0,.37-.82,1.06,1.06,0,0,0-.32-.8,1.24,1.24,0,0,0-.87-.3,1.69,1.69,0,0,0-.64.12,1.18,1.18,0,0,0-.49.36.94.94,0,0,0-.2.55h-.77a1.65,1.65,0,0,1,.31-.9,2,2,0,0,1,.77-.61,2.5,2.5,0,0,1,1-.21,2.1,2.1,0,0,1,1,.24,1.68,1.68,0,0,1,.67.65,1.62,1.62,0,0,1,.24.86,1.55,1.55,0,0,1-.29.94,1.52,1.52,0,0,1-.79.54v0a1.55,1.55,0,0,1,1,.53,1.6,1.6,0,0,1,.35,1.05,1.66,1.66,0,0,1-.29.95,2,2,0,0,1-.79.67A2.57,2.57,0,0,1,325.26,65.13Z"/><path class="cls-7" d="M328.78,65V58.5h.76v3.82h.09l2.15-2.19h.93l-2.08,2.1L332.86,65h-1l-1.83-2.32-.53.48V65Z"/><text class="cls-8" transform="translate(398.6 145.5)"></text><text class="cls-8" transform="translate(438.62 130.5)"></text><text class="cls-8" transform="translate(477.91 115.5)"></text><circle class="cls-2" cx="410.05" cy="167.45" r="17.01"/><circle class="cls-6" cx="410.05" cy="167.45" r="1.15"/><path class="cls-6" d="M416.63,160.56l-8.7,4.67a.22.22,0,0,0-.1.09L403.17,174a.22.22,0,0,0,0,.27.23.23,0,0,0,.16.06.22.22,0,0,0,.11,0l8.7-4.67a.28.28,0,0,0,.1-.09l4.66-8.71a.23.23,0,0,0-.31-.31Zm-4.73,8.74-8,4.27,4.28-8,8-4.27Z"/><path class="cls-6" d="M410.05,156.32a11.13,11.13,0,1,0,11.13,11.13A11.12,11.12,0,0,0,410.05,156.32ZM417.6,175a10.56,10.56,0,0,1-7.32,3.12v-1.48a.23.23,0,0,0-.23-.23.23.23,0,0,0-.23.23v1.48a10.66,10.66,0,0,1-10.43-10.43h1.48a.23.23,0,1,0,0-.46h-1.48a10.68,10.68,0,0,1,10.43-10.44v1.49a.24.24,0,0,0,.23.23.23.23,0,0,0,.23-.23v-1.49a10.68,10.68,0,0,1,10.44,10.44h-1.48a.23.23,0,0,0,0,.46h1.48A10.6,10.6,0,0,1,417.6,175Z"/><circle class="cls-3" cx="449.71" cy="152.45" r="17.01"/><path class="cls-7" d="M455.23,156.45l0,0c1.75-1.81,3.56-3.68,3.56-7.59a7.72,7.72,0,0,0-2.2-5.36,8,8,0,0,0-5.78-2.36c-3.48,0-6,.88-7.53,2.61-1.33,1.52-1.83,3.65-1.5,6.34-.24.33-.84,1.18-1.34,2-.69,1.12-.76,1.51-.71,1.71a.38.38,0,0,0,.12.27,1.66,1.66,0,0,0,1.16.2v.18a13.6,13.6,0,0,0,0,1.66.22.22,0,0,0,.13.19l.39.2v.37a10.72,10.72,0,0,0,.15,1.61c.14.87.3,1.13.5,1.19.45.28,1.44.16,2.89,0a11.77,11.77,0,0,1,1.31-.16,9.4,9.4,0,0,1,0,4.09.26.26,0,0,0,.05.19.25.25,0,0,0,.18.08h9.83a.21.21,0,0,0,.19-.11.2.2,0,0,0,0-.21A17.74,17.74,0,0,1,455.23,156.45ZM447,163.33a9.47,9.47,0,0,0-.14-4.2.26.26,0,0,0-.22-.17h-.07a12.29,12.29,0,0,0-1.49.17,6.37,6.37,0,0,1-2.59.11l-.06,0a7.52,7.52,0,0,1-.36-2.37v-.52a.23.23,0,0,0-.13-.2l-.4-.2a12.33,12.33,0,0,1,0-1.48c0-.12,0-.27,0-.43a.22.22,0,0,0-.23-.24h-.19c-.6,0-.81,0-.87-.05a.43.43,0,0,1,0-.05,11.61,11.61,0,0,1,2-3.41.21.21,0,0,0,0-.17c-.34-2.6.12-4.64,1.38-6.07,1.42-1.62,3.84-2.45,7.18-2.45a7.32,7.32,0,0,1,7.52,7.26c0,3.72-1.67,5.45-3.43,7.27l-.09.1a.24.24,0,0,0-.07.16,18.12,18.12,0,0,0,1.41,7Z"/><path class="cls-7" d="M450.08,146.69a2.62,2.62,0,1,0,2.61,2.61A2.62,2.62,0,0,0,450.08,146.69Zm0,4.77a2.16,2.16,0,1,1,2.15-2.16A2.16,2.16,0,0,1,450.08,151.46Z"/><path class="cls-7" d="M454,151.34c.12-.27.18-.43.29-.71l1-.27a.58.58,0,0,0,.42-.55v-1a.59.59,0,0,0-.42-.55l-1-.27c-.12-.27-.18-.42-.29-.7l.5-.88a.56.56,0,0,0-.1-.69l-.72-.72a.56.56,0,0,0-.69-.1l-.87.5-.71-.29-.27-1a.58.58,0,0,0-.55-.42h-1a.56.56,0,0,0-.55.43l-.27,1c-.27.12-.43.19-.71.29l-.87-.5a.58.58,0,0,0-.7.1l-.72.72a.58.58,0,0,0-.09.69l.5.87c-.12.28-.19.44-.29.72l-1,.26a.59.59,0,0,0-.41.55v1a.57.57,0,0,0,.42.56l1,.26c.12.27.18.43.29.71l-.5.88a.56.56,0,0,0,.1.69l.72.72a.56.56,0,0,0,.69.09l.87-.5.71.3.27,1a.58.58,0,0,0,.55.41h1a.55.55,0,0,0,.55-.42l.27-1,.7-.29.88.5a.56.56,0,0,0,.69-.09l.73-.73a.57.57,0,0,0,.09-.69Zm.08,1.24-.72.72h0a.1.1,0,0,1-.13,0l-1.07-.61-.1,0-.88.36-.15.06-.32,1.19h0a.11.11,0,0,1-.11.07h-1a.12.12,0,0,1-.11-.08l-.32-1.19-.11,0c-.37-.14-.53-.21-.87-.36l-.15-.06-1.07.61h0a.11.11,0,0,1-.13,0l-.72-.72h0a.09.09,0,0,1,0-.12l.61-1.07,0-.11c-.14-.37-.22-.54-.36-.88l-.06-.15-1.19-.32h0a.1.1,0,0,1-.07-.11v-1a.13.13,0,0,1,.08-.11l1.19-.32,0-.11c.14-.37.21-.52.36-.87l.06-.15-.61-1.07h0a.1.1,0,0,1,0-.12l.72-.73h0a.12.12,0,0,1,.13,0l1.07.61.1,0c.37-.14.54-.21.88-.36l.15-.06.32-1.18h0a.1.1,0,0,1,.11-.07h1a.12.12,0,0,1,.11.08l.32,1.19.11,0c.37.14.53.2.87.35l.15.06,1.07-.61h0a.1.1,0,0,1,.13,0l.72.73h0a.09.09,0,0,1,0,.12l-.61,1.07,0,.1c.14.37.21.54.36.88l.06.15,1.18.32a.14.14,0,0,1,.09.11v1a.12.12,0,0,1-.08.11l-1.19.33-.05.11c-.14.36-.2.52-.35.86l-.06.15.61,1.08h0A.1.1,0,0,1,454.1,152.58Z"/><circle class="cls-4" cx="489.36" cy="137.45" r="17.01"/><path class="cls-7" d="M489.48,135.25a2.62,2.62,0,1,0-2.61-2.61A2.61,2.61,0,0,0,489.48,135.25Zm0-4.76a2.15,2.15,0,1,1-2.15,2.15A2.15,2.15,0,0,1,489.48,130.49Z"/><path class="cls-7" d="M484.32,133.7l1,.26c.12.28.19.43.29.71l-.5.88a.56.56,0,0,0,.1.69l.72.72a.56.56,0,0,0,.69.1l.87-.5.72.29.26,1a.59.59,0,0,0,.55.41h1a.56.56,0,0,0,.56-.42l.26-1c.27-.11.43-.18.71-.28l.88.5a.56.56,0,0,0,.69-.1l.72-.72a.56.56,0,0,0,.09-.69l-.5-.87c.12-.28.19-.44.3-.72l1-.26a.59.59,0,0,0,.41-.55v-1a.58.58,0,0,0-.41-.55h0l-1-.26c-.11-.27-.18-.43-.29-.71l.5-.88a.56.56,0,0,0-.09-.69l-.73-.72a.56.56,0,0,0-.69-.09l-.87.49-.71-.29-.27-1A.58.58,0,0,0,490,127h-1a.56.56,0,0,0-.55.42l-.27,1-.7.29-.88-.5a.54.54,0,0,0-.69.09l-.72.73a.55.55,0,0,0-.1.68l.5.88c-.12.27-.18.43-.29.71l-1,.27a.57.57,0,0,0-.41.55v1A.56.56,0,0,0,484.32,133.7Zm0-1.58a.11.11,0,0,1,.08-.11l1.07-.3a.25.25,0,0,0,.16-.14c.14-.36.21-.52.35-.87l0,0a.23.23,0,0,0,0-.2l-.56-1h0s0-.08,0-.12l.73-.73h0s.07,0,.12,0l1,.55a.24.24,0,0,0,.2,0l.89-.36,0,0a.24.24,0,0,0,.13-.15l.29-1.08h0a.1.1,0,0,1,.1-.07h1a.12.12,0,0,1,.11.08l.3,1.08a.21.21,0,0,0,.14.15l.86.35.05,0a.2.2,0,0,0,.2,0l1-.55h0a.11.11,0,0,1,.12,0l.72.73h0a.09.09,0,0,1,0,.12l-.55,1a.21.21,0,0,0,0,.19c.15.38.21.54.36.89l0,0a.22.22,0,0,0,.15.13l1.08.3a.12.12,0,0,1,.08.11v1a.12.12,0,0,1-.08.1l-1.08.3a.21.21,0,0,0-.15.14c-.14.37-.21.52-.36.87v0a.22.22,0,0,0,0,.21l.55,1h0a.1.1,0,0,1,0,.12l-.72.73h0a.1.1,0,0,1-.12,0l-1-.56a.23.23,0,0,0-.2,0c-.37.14-.53.21-.88.36h0a.21.21,0,0,0-.13.16l-.3,1.07h0a.1.1,0,0,1-.11.07h-1a.12.12,0,0,1-.11-.08l-.29-1.07a.23.23,0,0,0-.14-.16l-.87-.35,0,0-.09,0-.12,0-1,.56h0s-.09,0-.12,0l-.73-.73h0s0-.08,0-.12l.56-1a.23.23,0,0,0,0-.2c-.14-.38-.21-.54-.36-.89l0,0a.22.22,0,0,0-.15-.13l-1.07-.3h0a.1.1,0,0,1-.07-.1Z"/><path class="cls-7" d="M500.4,142.64a1.53,1.53,0,0,0-1.91-.79l-3.38,1a1.29,1.29,0,0,0-1.29-1.08h-4.63a19.44,19.44,0,0,0-3-2.53,15.66,15.66,0,0,0-3.08.24v-1.13a.54.54,0,0,0-.53-.54H478.8a.54.54,0,0,0-.54.54v8.16a.54.54,0,0,0,.54.54h3.79a.54.54,0,0,0,.53-.54v-.93l6,2a3.28,3.28,0,0,0,1.22.22,4.6,4.6,0,0,0,1.72-.34l7.83-3.58A.94.94,0,0,0,500.4,142.64Zm-17.74,3.84a.08.08,0,0,1-.07.08H478.8a.08.08,0,0,1-.08-.08v-8.16a.08.08,0,0,1,.08-.08h3.79a.08.08,0,0,1,.07.08Zm17-3L491.84,147a3.83,3.83,0,0,1-2.59.11l-6.13-2.07v-5.15a15.82,15.82,0,0,1,3-.25,21.35,21.35,0,0,1,2.86,2.48.23.23,0,0,0,.16.06h4.72a.82.82,0,0,1,.84.79c0,.37-.19.79-.86.87l-5.53.37a.23.23,0,0,0,0,.46h0l5.53-.37h0a1.34,1.34,0,0,0,1.26-1l3.52-1a1.07,1.07,0,0,1,1.35.5A.48.48,0,0,1,499.67,143.44Z"/><circle class="cls-7" cx="480.69" cy="145.41" r="0.38"/><circle class="cls-5" cx="529.02" cy="122.45" r="17.01"/><path class="cls-7" d="M529,123.85a4.45,4.45,0,1,0-4.46-4.45A4.46,4.46,0,0,0,529,123.85Zm0-8.44a4,4,0,1,1-4,4A4,4,0,0,1,529,115.41Z"/><path class="cls-7" d="M537.08,130.75l-2.84-6.86,2.56-1.06a.23.23,0,0,0,.12-.3l-1.28-3.09,1.28-3.09a.23.23,0,0,0-.12-.3l-3.09-1.28-1.28-3.09a.24.24,0,0,0-.31-.13L529,112.83l-3.09-1.28a.28.28,0,0,0-.18,0,.25.25,0,0,0-.12.13l-1.28,3.09-3.09,1.28a.25.25,0,0,0-.13.12.28.28,0,0,0,0,.18l1.28,3.09-1.28,3.09a.22.22,0,0,0,.13.3l2.53,1L521,130.75a.26.26,0,0,0,0,.25.24.24,0,0,0,.25.05l3.29-1.36,1.38,3.33a.23.23,0,0,0,.42,0l2.68-6.45,2.67,6.45a.23.23,0,0,0,.42,0l1.38-3.33,3.29,1.36A.24.24,0,0,0,537,131,.22.22,0,0,0,537.08,130.75Zm-14.19-11.22a.28.28,0,0,0,0-.18l-1.23-3,3-1.23a.24.24,0,0,0,.13-.13l1.23-3,3,1.22a.19.19,0,0,0,.18,0l3-1.22,1.23,3a.25.25,0,0,0,.12.13l3,1.23-1.23,3a.28.28,0,0,0,0,.18l1.23,3-3,1.23a.2.2,0,0,0-.12.12l-1.23,3-3-1.23-.09,0-.09,0-3,1.23-1.23-3a.2.2,0,0,0-.13-.12l-3-1.23Zm3.24,12.8-1.26-3a.22.22,0,0,0-.3-.12l-3,1.23,2.63-6.35.14,0,1.28,3.1a.23.23,0,0,0,.3.12l2.73-1.13Zm7.33-3.15a.19.19,0,0,0-.18,0,.18.18,0,0,0-.12.12l-1.26,3-2.55-6.15,2.77,1.15.09,0a.26.26,0,0,0,.22-.14l1.28-3.1.1,0,2.63,6.34Z"/><line class="cls-9" x1="258.21" y1="53.21" x2="258.21" y2="185.02"/><line class="cls-9" x1="302.8" y1="53.54" x2="302.8" y2="185.35"/><line class="cls-9" x1="201.84" y1="140.9" x2="258.15" y2="140.9"/></svg>