<svg id="Layer_1" data-name="Layer 1" xmlns="http://www.w3.org/2000/svg" viewBox="0 0 352 198"><defs><style>.cls-1{fill:#fff;}.cls-2{opacity:0.25;}.cls-3{fill:#459af6;}.cls-4{fill:#002dd4;}.cls-5{fill:#001961;}.cls-6{fill:#fffa38;}.cls-7{fill:#61e1dd;}</style></defs><rect class="cls-1" width="352" height="198"/><g class="cls-2"><rect class="cls-3" x="20" y="23" width="32" height="32" rx="4"/><rect class="cls-3" x="20" y="63" width="32" height="32" rx="4"/><rect class="cls-3" x="20" y="103" width="32" height="32" rx="4"/><rect class="cls-3" x="20" y="143" width="32" height="32" rx="4"/><rect class="cls-3" x="60" y="23" width="32" height="32" rx="4"/><rect class="cls-3" x="60" y="63" width="32" height="32" rx="4"/><rect class="cls-3" x="60" y="103" width="32" height="32" rx="4"/><rect class="cls-3" x="60" y="143" width="32" height="32" rx="4"/><rect class="cls-3" x="100" y="23" width="32" height="32" rx="4"/><rect class="cls-3" x="100" y="63" width="32" height="32" rx="4"/><rect class="cls-3" x="100" y="103" width="32" height="32" rx="4"/><rect class="cls-3" x="100" y="143" width="32" height="32" rx="4"/><rect class="cls-3" x="140" y="23" width="32" height="32" rx="4"/><rect class="cls-3" x="140" y="63" width="32" height="32" rx="4"/><rect class="cls-3" x="140" y="103" width="32" height="32" rx="4"/><rect class="cls-3" x="140" y="143" width="32" height="32" rx="4"/><rect class="cls-3" x="180" y="23" width="32" height="32" rx="4"/><rect class="cls-3" x="180" y="63" width="32" height="32" rx="4"/><rect class="cls-3" x="180" y="103" width="32" height="32" rx="4"/><rect class="cls-3" x="180" y="143" width="32" height="32" rx="4"/><rect class="cls-3" x="220" y="23" width="32" height="32" rx="4"/><rect class="cls-3" x="220" y="63" width="32" height="32" rx="4"/><rect class="cls-3" x="220" y="103" width="32" height="32" rx="4"/><rect class="cls-3" x="220" y="143" width="32" height="32" rx="4"/><rect class="cls-3" x="260" y="23" width="32" height="32" rx="4"/><rect class="cls-3" x="260" y="63" width="32" height="32" rx="4"/><rect class="cls-3" x="260" y="103" width="32" height="32" rx="4"/><rect class="cls-3" x="260" y="143" width="32" height="32" rx="4"/><rect class="cls-3" x="300" y="23" width="32" height="32" rx="4"/><rect class="cls-3" x="300" y="63" width="32" height="32" rx="4"/><rect class="cls-3" x="300" y="103" width="32" height="32" rx="4"/><rect class="cls-3" x="300" y="143" width="32" height="32" rx="4"/></g><rect class="cls-4" x="308" y="31" width="16" height="16"/><rect class="cls-5" x="308" y="71" width="16" height="16"/><rect class="cls-6" x="308" y="111" width="16" height="16"/><rect class="cls-7" x="308" y="151" width="16" height="16"/><rect class="cls-6" x="268" y="31" width="16" height="16"/><rect class="cls-7" x="268" y="71" width="16" height="16"/><rect class="cls-4" x="268" y="111" width="16" height="16"/><rect class="cls-5" x="268" y="151" width="16" height="16"/><rect class="cls-5" x="228" y="31" width="16" height="16"/><rect class="cls-6" x="228" y="71" width="16" height="16"/><rect class="cls-7" x="228" y="111" width="16" height="16"/><rect class="cls-4" x="228" y="151" width="16" height="16"/><rect class="cls-7" x="188" y="31" width="16" height="16"/><rect class="cls-4" x="188" y="71" width="16" height="16"/><rect class="cls-5" x="188" y="111" width="16" height="16"/><rect class="cls-6" x="188" y="151" width="16" height="16"/><rect class="cls-5" x="148" y="31" width="16" height="16"/><rect class="cls-6" x="148" y="71" width="16" height="16"/><rect class="cls-7" x="148" y="111" width="16" height="16"/><rect class="cls-4" x="148" y="151" width="16" height="16"/><rect class="cls-4" x="108" y="31" width="16" height="16"/><rect class="cls-7" x="108" y="71" width="16" height="16"/><rect class="cls-5" x="108" y="111" width="16" height="16"/><rect class="cls-6" x="108" y="151" width="16" height="16"/><rect class="cls-6" x="68" y="31" width="16" height="16"/><rect class="cls-5" x="68" y="71" width="16" height="16"/><rect class="cls-4" x="68" y="111" width="16" height="16"/><rect class="cls-7" x="68.11" y="151.11" width="16" height="16"/><rect class="cls-7" x="28.11" y="31.11" width="16" height="16"/><rect class="cls-4" x="28" y="71" width="16" height="16"/><rect class="cls-6" x="28" y="111" width="16" height="16"/><rect class="cls-5" x="28" y="151" width="16" height="16"/></svg>