<svg id="Layer_1" data-name="Layer 1" xmlns="http://www.w3.org/2000/svg" viewBox="0 0 352 198"><defs><style>.cls-1{fill:#fff;}.cls-2{fill:#fffa38;}.cls-3{fill:#61e1dd;}.cls-4{fill:#459af6;}.cls-5{fill:#002dd4;}.cls-6,.cls-8{fill:none;stroke-miterlimit:10;}.cls-6{stroke:#fff;}.cls-7{fill:#001961;}.cls-7,.cls-8{opacity:0.5;}.cls-8{stroke:#001961;stroke-width:2px;}</style></defs><rect class="cls-1" width="352" height="198"/><rect class="cls-2" x="261.28" y="74.94" width="15.53" height="19.06"/><rect class="cls-3" x="279.38" y="44.19" width="15.53" height="49.81"/><rect class="cls-4" x="297.48" y="27.83" width="15.53" height="66.17"/><rect class="cls-5" x="315.58" y="21" width="15.53" height="73"/><rect class="cls-2" x="259.35" y="105.68" width="73.24" height="69.87" transform="translate(155.35 436.59) rotate(-90)"/><rect class="cls-3" x="284.47" y="151.07" width="46.43" height="26.17"/><rect class="cls-5" x="261.03" y="104" width="69.87" height="25.74"/><rect class="cls-4" x="261.03" y="129.74" width="69.87" height="21.31"/><line class="cls-6" x1="334.62" y1="129.47" x2="257.31" y2="129.47"/><line class="cls-6" x1="332.49" y1="151.04" x2="255.19" y2="151.04"/><line class="cls-6" x1="284.47" y1="177.24" x2="284.47" y2="151.07"/><path d="M190.11,94V65.14L187,68.29l-.77-.76,4.46-4.46,4.46,4.46-.76.76-3.15-3.15V94Z"/><rect class="cls-7" x="200.09" y="67.16" width="28.59" height="15.46"/><line class="cls-8" x1="200.09" y1="87.83" x2="242.25" y2="87.83"/><line class="cls-8" x1="200.09" y1="92.16" x2="234.16" y2="92.16"/><path d="M190.11,52.84V24L187,27.14l-.77-.77,4.46-4.45,4.46,4.45-.76.77L191.2,24V52.84Z"/><rect class="cls-7" x="200.09" y="26" width="28.59" height="15.46"/><line class="cls-8" x1="200.09" y1="46.67" x2="242.25" y2="46.67"/><line class="cls-8" x1="200.09" y1="51" x2="234.16" y2="51"/><path d="M190.26,135.08V106.23l-3.14,3.15-.77-.77,4.46-4.45,4.45,4.45-.75.77-3.15-3.15v28.85Z"/><rect class="cls-7" x="200.25" y="108.24" width="28.59" height="15.46"/><line class="cls-8" x1="200.25" y1="128.91" x2="242.4" y2="128.91"/><line class="cls-8" x1="200.25" y1="133.24" x2="234.32" y2="133.24"/><path d="M190.26,176.89V148l-3.14,3.15-.77-.77,4.46-4.45,4.45,4.45-.75.77L191.36,148v28.86Z"/><rect class="cls-7" x="200.25" y="150.05" width="28.59" height="15.46"/><line class="cls-8" x1="200.25" y1="170.72" x2="242.4" y2="170.72"/><line class="cls-8" x1="200.25" y1="175.05" x2="234.32" y2="175.05"/><circle class="cls-2" cx="51.47" cy="141.41" r="30"/><circle cx="51.47" cy="141.41" r="2.03"/><path d="M63.07,129.26l-15.35,8.23a.46.46,0,0,0-.17.17L39.32,153a.39.39,0,0,0,.07.48.4.4,0,0,0,.29.12.45.45,0,0,0,.19-.05l15.35-8.23a.46.46,0,0,0,.17-.17l8.23-15.35a.43.43,0,0,0-.07-.48A.41.41,0,0,0,63.07,129.26Zm-8.34,15.41-14.06,7.54,7.54-14.06,14.06-7.54Z"/><path d="M51.47,121.78A19.63,19.63,0,1,0,71.1,141.41,19.63,19.63,0,0,0,51.47,121.78Zm13.3,32.94a18.68,18.68,0,0,1-12.9,5.5v-2.61a.41.41,0,1,0-.81,0v2.61a18.79,18.79,0,0,1-18.4-18.4h2.61a.41.41,0,0,0,.41-.41.41.41,0,0,0-.41-.41H32.66a18.81,18.81,0,0,1,18.4-18.4v2.62a.41.41,0,0,0,.81,0V122.6A18.83,18.83,0,0,1,70.28,141H67.66a.41.41,0,0,0-.4.41.4.4,0,0,0,.4.41h2.62A18.68,18.68,0,0,1,64.77,154.72Z"/><circle class="cls-3" cx="135.74" cy="141.41" r="30"/><path class="cls-1" d="M145.47,148.46l0,0c3.09-3.19,6.28-6.5,6.28-13.39a13.64,13.64,0,0,0-3.87-9.45,14.1,14.1,0,0,0-10.21-4.17c-6.13,0-10.59,1.55-13.27,4.61-2.35,2.67-3.24,6.43-2.64,11.18-.43.59-1.5,2.08-2.38,3.52-1.21,2-1.33,2.67-1.25,3a.72.72,0,0,0,.22.47,2.93,2.93,0,0,0,2,.35c0,.12,0,.22,0,.33a22.43,22.43,0,0,0,0,2.92.39.39,0,0,0,.22.33l.69.35v.66a20.23,20.23,0,0,0,.26,2.84c.26,1.52.55,2,.89,2.09.79.5,2.55.29,5.1-.09.89-.13,1.74-.25,2.31-.28a16.58,16.58,0,0,1,.07,7.22.43.43,0,0,0,.09.33.41.41,0,0,0,.31.14h17.35a.42.42,0,0,0,.34-.18.4.4,0,0,0,0-.38A31.34,31.34,0,0,1,145.47,148.46Zm-14.6,12.14a16.54,16.54,0,0,0-.25-7.4.38.38,0,0,0-.37-.29h-.13a21.28,21.28,0,0,0-2.63.3c-1.61.24-4,.6-4.56.19l-.11-.06a12.87,12.87,0,0,1-.65-4.17v-.91a.4.4,0,0,0-.22-.37l-.7-.35a19,19,0,0,1,0-2.6c0-.22,0-.47,0-.77a.41.41,0,0,0-.11-.3.4.4,0,0,0-.29-.12h-.33a3.36,3.36,0,0,1-1.55-.09.15.15,0,0,0,0-.09c-.07-.46,1.25-2.84,3.59-6a.38.38,0,0,0,.07-.29c-.6-4.59.22-8.19,2.43-10.71,2.52-2.87,6.78-4.33,12.66-4.33A12.91,12.91,0,0,1,151,135c0,6.56-2.94,9.61-6,12.83l-.16.16a.39.39,0,0,0-.11.29,31.77,31.77,0,0,0,2.47,12.29Z"/><path class="cls-1" d="M136.39,131.26a4.61,4.61,0,1,0,4.61,4.6A4.61,4.61,0,0,0,136.39,131.26Zm0,8.4a3.8,3.8,0,1,1,3.8-3.8A3.8,3.8,0,0,1,136.39,139.66Z"/><path class="cls-1" d="M143.35,139.46c.2-.48.32-.76.51-1.26l1.72-.47a1,1,0,0,0,.72-1v-1.82a1,1,0,0,0-.72-1l-1.73-.47c-.2-.48-.32-.75-.51-1.24l.89-1.56a1,1,0,0,0-.17-1.21l-1.28-1.28a1,1,0,0,0-1.21-.16l-1.54.88c-.49-.21-.77-.33-1.26-.52l-.47-1.71a1,1,0,0,0-1-.73h-1.82a1,1,0,0,0-1,.75l-.47,1.7c-.48.21-.76.32-1.25.51l-1.55-.88a1,1,0,0,0-1.22.17l-1.27,1.27a1,1,0,0,0-.16,1.22l.87,1.54c-.2.48-.32.76-.51,1.26l-1.71.46a1,1,0,0,0-.73,1v1.82a1,1,0,0,0,.75,1l1.7.46c.2.49.32.76.51,1.25l-.88,1.55a1,1,0,0,0,.17,1.22l1.27,1.28a1,1,0,0,0,1.22.16l1.54-.88c.48.21.76.32,1.25.51l.47,1.72a1,1,0,0,0,1,.73h1.82a1,1,0,0,0,1-.75l.46-1.7c.48-.21.76-.32,1.25-.51l1.55.88a1,1,0,0,0,1.22-.17l1.27-1.28a1,1,0,0,0,.16-1.21Zm.14,2.18-1.28,1.28,0,0a.18.18,0,0,1-.21,0l-1.89-1.08-.18.07c-.66.25-1,.38-1.55.63l-.27.11-.57,2.09v0a.19.19,0,0,1-.19.12h-1.82a.21.21,0,0,1-.19-.14l-.57-2.1-.19-.07c-.65-.25-.93-.37-1.54-.63l-.26-.1L130.87,143h0a.21.21,0,0,1-.22-.05l-1.28-1.28h0a.17.17,0,0,1,0-.22l1.08-1.89-.07-.18c-.26-.66-.38-1-.63-1.55l-.12-.26-2.09-.58h0a.18.18,0,0,1-.13-.19v-1.82a.23.23,0,0,1,.14-.19l2.1-.57.08-.19c.24-.65.36-.93.62-1.53l.11-.26-1.08-1.9v0a.17.17,0,0,1,0-.21l1.28-1.28,0,0a.19.19,0,0,1,.22,0l1.88,1.08.18-.07c.66-.25,1-.38,1.56-.63l.26-.11.57-2.09v0a.18.18,0,0,1,.18-.13h1.82a.21.21,0,0,1,.19.15l.58,2.1.19.07c.64.25.92.36,1.53.62l.26.11,1.9-1.08h0a.18.18,0,0,1,.22,0l1.28,1.28h0a.17.17,0,0,1,0,.22l-1.07,1.89.07.18c.25.65.37.95.63,1.55l.11.26,2.08.57a.21.21,0,0,1,.15.19v1.82a.2.2,0,0,1-.14.19l-2.1.58-.07.19c-.25.65-.37.92-.63,1.53l-.11.26,1.08,1.9v0A.17.17,0,0,1,143.49,141.64Z"/><circle class="cls-4" cx="51.47" cy="57" r="30"/><path class="cls-1" d="M51.68,53.13a4.61,4.61,0,1,0-4.61-4.61A4.62,4.62,0,0,0,51.68,53.13Zm0-8.41a3.8,3.8,0,1,1-3.8,3.8A3.8,3.8,0,0,1,51.68,44.72Z"/><path class="cls-1" d="M42.57,50.39l1.71.47c.2.48.32.75.51,1.24l-.89,1.56a1,1,0,0,0,.17,1.21l1.28,1.28a1,1,0,0,0,1.21.16l1.54-.88,1.26.52.47,1.71a1,1,0,0,0,1,.73h1.82a1,1,0,0,0,1-.75l.47-1.7c.48-.21.76-.32,1.25-.51l1.55.88a1,1,0,0,0,1.22-.17l1.27-1.27a1,1,0,0,0,.16-1.22l-.88-1.54c.21-.48.33-.76.52-1.25l1.71-.47a1,1,0,0,0,.73-1V47.6a1,1,0,0,0-.73-1h0l-1.71-.46c-.2-.49-.32-.76-.51-1.25l.88-1.55a1,1,0,0,0-.17-1.22l-1.27-1.28a1,1,0,0,0-1.22-.16l-1.54.88-1.25-.51-.47-1.72a1,1,0,0,0-1-.73H50.8a1,1,0,0,0-1,.75l-.46,1.71c-.48.2-.76.32-1.25.5l-1.55-.88a1,1,0,0,0-1.22.17l-1.27,1.28a1,1,0,0,0-.17,1.21l.88,1.54c-.2.48-.32.76-.51,1.26l-1.72.47a1,1,0,0,0-.72,1v1.82A1,1,0,0,0,42.57,50.39Zm.07-2.79a.2.2,0,0,1,.14-.19l1.9-.52a.4.4,0,0,0,.27-.25c.25-.65.37-.93.63-1.53l0-.08a.42.42,0,0,0,0-.36l-1-1.72h0a.19.19,0,0,1,0-.22l1.28-1.28,0,0a.18.18,0,0,1,.21,0l1.72,1a.39.39,0,0,0,.35,0c.66-.25.94-.37,1.56-.63l.08,0a.41.41,0,0,0,.23-.27l.52-1.9v0a.19.19,0,0,1,.19-.12h1.82a.21.21,0,0,1,.19.14l.52,1.9a.38.38,0,0,0,.24.27c.65.25.92.36,1.53.62l.08,0a.41.41,0,0,0,.36,0l1.72-1h0a.19.19,0,0,1,.21,0l1.29,1.28h0a.17.17,0,0,1,0,.22l-1,1.72a.43.43,0,0,0,0,.35c.26.66.38.94.64,1.56l0,.07a.43.43,0,0,0,.27.24l1.89.52a.2.2,0,0,1,.15.19v1.82a.23.23,0,0,1-.14.19l-1.9.52a.4.4,0,0,0-.28.24c-.24.65-.36.93-.62,1.54l0,.07a.41.41,0,0,0,0,.36l1,1.72v0a.17.17,0,0,1,0,.21l-1.29,1.28v0a.19.19,0,0,1-.22,0l-1.72-1a.41.41,0,0,0-.34,0c-.67.25-1,.37-1.57.64l-.07,0a.4.4,0,0,0-.23.26l-.52,1.91h0a.17.17,0,0,1-.18.13H50.8a.22.22,0,0,1-.19-.14l-.52-1.91a.44.44,0,0,0-.25-.27c-.64-.24-.92-.36-1.52-.62l-.09,0a.35.35,0,0,0-.36,0l-1.72,1h0a.18.18,0,0,1-.22,0l-1.28-1.28h0a.17.17,0,0,1,0-.22l1-1.72a.39.39,0,0,0,0-.35c-.25-.66-.37-.94-.63-1.56l0-.07a.39.39,0,0,0-.27-.23l-1.9-.52h0a.18.18,0,0,1-.12-.18Z"/><path class="cls-1" d="M70.94,66.16a2.68,2.68,0,0,0-3.36-1.38c-1.5.41-4.62,1.3-6,1.69a2.26,2.26,0,0,0-2.27-1.89H51.16c-1.17-1.14-4.46-4.25-5.27-4.46a27.15,27.15,0,0,0-5.42.4v-2a1,1,0,0,0-.95-.95H32.83a1,1,0,0,0-.95.95V72.93a1,1,0,0,0,.95.95h6.69a1,1,0,0,0,.95-.95V71.29L51,74.83a5.76,5.76,0,0,0,2.16.4,8.42,8.42,0,0,0,3-.6L70,68.31A1.66,1.66,0,0,0,70.94,66.16ZM39.66,72.93a.14.14,0,0,1-.14.14H32.83a.14.14,0,0,1-.14-.14V58.54a.14.14,0,0,1,.14-.13h6.69a.14.14,0,0,1,.14.13Zm30-5.36L55.84,73.89a6.81,6.81,0,0,1-4.56.18L40.47,70.43V61.35a28.14,28.14,0,0,1,5.21-.45,38,38,0,0,1,5,4.37.38.38,0,0,0,.28.12h8.33a1.45,1.45,0,0,1,1.49,1.39c0,.64-.34,1.39-1.53,1.53L49.54,69a.41.41,0,0,0-.38.43.41.41,0,0,0,.41.38h0l9.77-.65h0a2.36,2.36,0,0,0,2.21-1.8C62.78,67,66.2,66,67.8,65.56a1.88,1.88,0,0,1,2.38.88A.86.86,0,0,1,69.65,67.57Z"/><circle class="cls-1" cx="36.17" cy="71.05" r="0.68"/><circle class="cls-5" cx="135.74" cy="57" r="30"/><path class="cls-1" d="M135.74,59.47a7.85,7.85,0,1,0-7.85-7.85A7.86,7.86,0,0,0,135.74,59.47Zm0-14.89a7,7,0,1,1-7,7A7.05,7.05,0,0,1,135.74,44.58Z"/><path class="cls-1" d="M150,71.64l-5-12.09,4.51-1.87a.41.41,0,0,0,.22-.53l-2.26-5.45,2.26-5.45a.41.41,0,0,0-.22-.53L144,43.46,141.75,38a.41.41,0,0,0-.53-.22L135.77,40l-5.45-2.26a.42.42,0,0,0-.31,0,.43.43,0,0,0-.22.22l-2.26,5.46-5.46,2.26a.47.47,0,0,0-.22.22.42.42,0,0,0,0,.31l2.26,5.45-2.26,5.45a.41.41,0,0,0,.22.53l4.46,1.85-5,12.11a.4.4,0,0,0,.09.45.42.42,0,0,0,.44.09l5.79-2.4,2.44,5.87a.4.4,0,0,0,.37.25.42.42,0,0,0,.38-.25l4.71-11.38,4.72,11.38a.4.4,0,0,0,.37.25.43.43,0,0,0,.38-.25l2.43-5.87,5.79,2.4a.43.43,0,0,0,.45-.09A.41.41,0,0,0,150,71.64Zm-25-19.78a.44.44,0,0,0,0-.32l-2.17-5.23L128,44.14a.4.4,0,0,0,.22-.22l2.17-5.23,5.24,2.17a.42.42,0,0,0,.31,0l5.23-2.17,2.17,5.23a.4.4,0,0,0,.22.22l5.23,2.17-2.17,5.23a.44.44,0,0,0,0,.32l2.17,5.23-5.23,2.17a.4.4,0,0,0-.22.22l-2.17,5.23-5.23-2.17a.45.45,0,0,0-.16,0,.4.4,0,0,0-.15,0l-5.24,2.17-2.17-5.23a.4.4,0,0,0-.22-.22l-5.23-2.17Zm5.72,22.58-2.21-5.35a.4.4,0,0,0-.53-.22l-5.27,2.18,4.65-11.21.24.1,2.26,5.46a.41.41,0,0,0,.53.22l4.81-2Zm12.93-5.57a.44.44,0,0,0-.32,0,.41.41,0,0,0-.21.22l-2.22,5.35-4.49-10.85,4.88,2a.45.45,0,0,0,.16,0,.4.4,0,0,0,.37-.25L144,59.94l.2-.08,4.63,11.19Z"/></svg>