<svg id="Layer_1" data-name="Layer 1" xmlns="http://www.w3.org/2000/svg" viewBox="0 0 352 198"><defs><style>.cls-1{fill:#fff;}.cls-11,.cls-2{fill:#001961;}.cls-3,.cls-4{fill:#459af6;}.cls-4,.cls-8{opacity:0.25;}.cls-10,.cls-5,.cls-6,.cls-8,.cls-9{fill:none;stroke-miterlimit:10;}.cls-5,.cls-6,.cls-9{stroke:#001961;}.cls-5{stroke-width:5px;}.cls-11,.cls-5,.cls-6,.cls-7{opacity:0.5;}.cls-6{stroke-width:2px;}.cls-8{stroke:#459af6;}.cls-10,.cls-8,.cls-9{stroke-width:4px;}.cls-10{stroke:#00ce7c;}.cls-12{fill:#00ce7c;}.cls-13{fill:#f5333f;}</style></defs><rect class="cls-1" width="352" height="198"/><path class="cls-2" d="M20.66,50.57h42a4,4,0,0,1,4,4v10a0,0,0,0,1,0,0h-50a0,0,0,0,1,0,0v-10A4,4,0,0,1,20.66,50.57Z"/><path class="cls-3" d="M72.66,50.57h42a4,4,0,0,1,4,4v8a0,0,0,0,1,0,0h-50a0,0,0,0,1,0,0v-8A4,4,0,0,1,72.66,50.57Z"/><path class="cls-3" d="M124.66,50.57h42a4,4,0,0,1,4,4v8a0,0,0,0,1,0,0h-50a0,0,0,0,1,0,0v-8A4,4,0,0,1,124.66,50.57Z"/><path class="cls-3" d="M176.66,50.57h42a4,4,0,0,1,4,4v8a0,0,0,0,1,0,0h-50a0,0,0,0,1,0,0v-8A4,4,0,0,1,176.66,50.57Z"/><rect class="cls-4" x="16.72" y="90.38" width="96" height="41" rx="4"/><path class="cls-3" d="M20.66,87.57h88a4,4,0,0,1,4,4v4a0,0,0,0,1,0,0h-96a0,0,0,0,1,0,0v-4A4,4,0,0,1,20.66,87.57Z"/><rect class="cls-4" x="123.72" y="90.38" width="96" height="41" rx="4"/><path class="cls-3" d="M127.67,87.57h88a4,4,0,0,1,4,4v4a0,0,0,0,1,0,0h-96a0,0,0,0,1,0,0v-4A4,4,0,0,1,127.67,87.57Z"/><rect class="cls-4" x="230.72" y="90.38" width="96" height="41" rx="4"/><path class="cls-3" d="M234.67,87.57h88a4,4,0,0,1,4,4v4a0,0,0,0,1,0,0h-96a0,0,0,0,1,0,0v-4A4,4,0,0,1,234.67,87.57Z"/><rect class="cls-4" x="16.66" y="141.31" width="70" height="41" rx="4"/><path class="cls-3" d="M20.66,139.43h62a4,4,0,0,1,4,4v4a0,0,0,0,1,0,0h-70a0,0,0,0,1,0,0v-4A4,4,0,0,1,20.66,139.43Z"/><rect class="cls-4" x="96.67" y="141.31" width="70" height="41" rx="4"/><path class="cls-3" d="M100.67,139.43h62a4,4,0,0,1,4,4v4a0,0,0,0,1,0,0h-70a0,0,0,0,1,0,0v-4A4,4,0,0,1,100.67,139.43Z"/><rect class="cls-4" x="256.67" y="141.31" width="70" height="41" rx="4"/><path class="cls-3" d="M260.67,139.43h62a4,4,0,0,1,4,4v4a0,0,0,0,1,0,0h-70a0,0,0,0,1,0,0v-4A4,4,0,0,1,260.67,139.43Z"/><rect class="cls-4" x="176.67" y="141.31" width="70" height="41" rx="4"/><path class="cls-3" d="M180.67,139.43h62a4,4,0,0,1,4,4v4a0,0,0,0,1,0,0h-70a0,0,0,0,1,0,0v-4A4,4,0,0,1,180.67,139.43Z"/><rect class="cls-2" x="16.66" y="16.51" width="70" height="10"/><rect class="cls-2" x="16.66" y="28.57" width="60" height="5"/><path class="cls-3" d="M140.66,18.57a10,10,0,1,1-10,10,10,10,0,0,1,10-10m0-2a12,12,0,1,0,12,12,12,12,0,0,0-12-12Z"/><path class="cls-3" d="M247.66,18.57a10,10,0,1,1-10,10,10,10,0,0,1,10-10m0-2a12,12,0,1,0,12,12,12,12,0,0,0-12-12Z"/><path class="cls-2" d="M16.66,62.57h310a0,0,0,0,1,0,0v8a4,4,0,0,1-4,4h-302a4,4,0,0,1-4-4v-8a0,0,0,0,1,0,0Z"/><line class="cls-5" x1="157.72" y1="23.81" x2="193.54" y2="23.81"/><line class="cls-6" x1="157.67" y1="29.22" x2="209.16" y2="29.22"/><line class="cls-6" x1="157.67" y1="33.33" x2="199.42" y2="33.33"/><line class="cls-5" x1="264.72" y1="23.81" x2="300.54" y2="23.81"/><line class="cls-6" x1="264.67" y1="29.22" x2="316.16" y2="29.22"/><line class="cls-6" x1="264.67" y1="33.33" x2="306.42" y2="33.33"/><line class="cls-5" x1="264.72" y1="108.26" x2="300.55" y2="108.26"/><line class="cls-6" x1="264.67" y1="113.67" x2="316.16" y2="113.67"/><line class="cls-6" x1="135.72" y1="101.07" x2="170.63" y2="101.07"/><line class="cls-6" x1="264.67" y1="117.78" x2="306.42" y2="117.78"/><line class="cls-5" x1="50.95" y1="159.76" x2="73.31" y2="159.76"/><line class="cls-6" x1="50.89" y1="165.17" x2="79.99" y2="165.17"/><line class="cls-6" x1="50.89" y1="169.28" x2="63.74" y2="169.28"/><g class="cls-7"><circle class="cls-2" cx="247.67" cy="113.02" r="12"/></g><circle class="cls-1" cx="247.67" cy="113.02" r="10"/><circle class="cls-8" cx="33.89" cy="164.52" r="10"/><path class="cls-9" d="M33.89,154.52a10,10,0,1,1-10,10"/><circle class="cls-8" cx="113.67" cy="164.52" r="10"/><path class="cls-10" d="M103.67,164.52"/><path class="cls-10" d="M113.67,154.52a10,10,0,0,1,0,20"/><circle class="cls-8" cx="149.67" cy="164.52" r="10"/><path class="cls-10" d="M139.67,164.52"/><path class="cls-10" d="M149.67,174.52"/><path class="cls-10" d="M149.67,154.52a10,10,0,0,1,10,10"/><circle class="cls-11" cx="131.22" cy="101.07" r="2.5"/><line class="cls-6" x1="135.72" y1="108.88" x2="187.21" y2="108.88"/><circle class="cls-11" cx="131.22" cy="108.88" r="2.5"/><line class="cls-6" x1="135.72" y1="116.69" x2="179.18" y2="116.69"/><circle class="cls-11" cx="131.22" cy="116.69" r="2.5"/><line class="cls-6" x1="135.72" y1="124.51" x2="162.63" y2="124.51"/><circle class="cls-11" cx="131.22" cy="124.51" r="2.5"/><line class="cls-6" x1="268.67" y1="153.34" x2="303.58" y2="153.34"/><circle class="cls-12" cx="264.17" cy="153.34" r="2.5"/><line class="cls-6" x1="268.67" y1="161.15" x2="320.16" y2="161.15"/><line class="cls-6" x1="188.67" y1="157.15" x2="203.11" y2="157.15"/><circle class="cls-12" cx="264.17" cy="161.15" r="2.5"/><line class="cls-6" x1="268.67" y1="168.97" x2="312.13" y2="168.97"/><circle class="cls-12" cx="264.17" cy="168.97" r="2.5"/><line class="cls-6" x1="188.67" y1="153.34" x2="234.55" y2="153.34"/><circle class="cls-13" cx="184.17" cy="153.34" r="2.5"/><line class="cls-6" x1="188.67" y1="168.97" x2="238.42" y2="168.97"/><circle class="cls-13" cx="184.17" cy="168.97" r="2.5"/><line class="cls-6" x1="268.67" y1="176.78" x2="295.57" y2="176.78"/><line class="cls-6" x1="188.67" y1="172.78" x2="225.55" y2="172.78"/><circle class="cls-12" cx="264.17" cy="176.78" r="2.5"/><line class="cls-6" x1="28.89" y1="101.07" x2="76.66" y2="101.07"/><circle class="cls-11" cx="24.39" cy="101.07" r="2.5"/><line class="cls-6" x1="28.89" y1="108.88" x2="56.15" y2="108.88"/><circle class="cls-11" cx="24.39" cy="108.88" r="2.5"/></svg>