<svg id="Layer_1" data-name="Layer 1" xmlns="http://www.w3.org/2000/svg" viewBox="0 0 352 198"><defs><style>.cls-1{fill:#fff;}.cls-2{fill:#002dd4;}.cls-3{fill:#fffa38;}.cls-4{fill:#61e1dd;}.cls-5{fill:#001961;}.cls-6{fill:#459af6;}.cls-7{fill:none;stroke:#001961;stroke-miterlimit:10;stroke-width:2px;opacity:0.5;}</style></defs><rect class="cls-1" width="352" height="198"/><rect class="cls-2" x="21.36" y="162.96" width="16" height="16"/><rect class="cls-3" x="83.36" y="162.96" width="16" height="16"/><rect class="cls-4" x="145.36" y="162.96" width="16" height="16"/><rect class="cls-5" x="207.36" y="162.96" width="16" height="16"/><rect class="cls-6" x="269.36" y="162.96" width="16" height="16"/><line class="cls-7" x1="41.36" y1="168.96" x2="74.09" y2="168.96"/><line class="cls-7" x1="41.36" y1="172.96" x2="68.02" y2="172.96"/><line class="cls-7" x1="103.36" y1="168.96" x2="136.09" y2="168.96"/><line class="cls-7" x1="103.36" y1="172.96" x2="130.02" y2="172.96"/><line class="cls-7" x1="165.36" y1="168.96" x2="198.09" y2="168.96"/><line class="cls-7" x1="165.36" y1="172.96" x2="192.02" y2="172.96"/><line class="cls-7" x1="227.36" y1="168.96" x2="260.09" y2="168.96"/><line class="cls-7" x1="227.36" y1="172.96" x2="254.02" y2="172.96"/><line class="cls-7" x1="289.36" y1="168.96" x2="322.09" y2="168.96"/><line class="cls-7" x1="289.36" y1="172.96" x2="316.02" y2="172.96"/><path class="cls-6" d="M67.08,68,45.29,28.61A43.11,43.11,0,0,1,67.08,23Z"/><path class="cls-5" d="M67.08,68,24.33,54.06a43,43,0,0,1,21-25.45Z"/><path class="cls-4" d="M67.08,68,40.66,104.37A44.31,44.31,0,0,1,24.33,54.06Z"/><path class="cls-3" d="M67.08,68h45a45,45,0,0,1-44.95,45,43,43,0,0,1-26.42-8.59Z"/><path class="cls-2" d="M67.08,68V23a45,45,0,0,1,45,45H67.08Z"/><circle class="cls-1" cx="67.04" cy="67.55" r="22.5"/><path class="cls-6" d="M177,68,142.09,39.65A43.94,43.94,0,0,1,177,23Z"/><path class="cls-5" d="M177,68l-30.66,32.92a44.73,44.73,0,0,1-4.27-61.23Z"/><path class="cls-4" d="M177,68v45a43.07,43.07,0,0,1-30.66-12.08Z"/><path class="cls-3" d="M177,68l36.36,26.45A43.56,43.56,0,0,1,177,113Z"/><path class="cls-2" d="M177,68V23A45,45,0,0,1,222,68a43.16,43.16,0,0,1-8.58,26.45Z"/><circle class="cls-1" cx="176.81" cy="67.55" r="22.5"/><path class="cls-6" d="M284.88,68,268.05,26.24A43.54,43.54,0,0,1,284.88,23Z"/><path class="cls-5" d="M284.88,68l-38.1-23.84a43.11,43.11,0,0,1,21.27-17.88Z"/><path class="cls-4" d="M284.88,68l-30.64,32.92a44.54,44.54,0,0,1-7.46-56.76Z"/><path class="cls-3" d="M284.88,68v45a43,43,0,0,1-30.64-12.08Z"/><path class="cls-2" d="M284.88,68V23a45,45,0,0,1,0,90h0Z"/><circle class="cls-1" cx="284.98" cy="67.55" r="22.5"/></svg>