<svg xmlns="http://www.w3.org/2000/svg" viewBox="0 0 1200 1200"><defs><style>.cls-1{fill:none;}.cls-2{fill:#61e0de;}.cls-3{fill:#fffa38;}</style></defs><g id="backgrounds"><rect class="cls-1" width="1200" height="1200"/></g><g id="illustrations"><path class="cls-2" d="M530,573.31a59.2,59.2,0,1,0,59.2-59.19A59.19,59.19,0,0,0,530,573.31Z"/><rect x="466.22" y="297.97" width="6" height="328.48" transform="translate(-188.86 489.21) rotate(-46.92)"/><polygon points="344.66 435.04 207.6 306.86 252.36 302.78 252.91 308.75 221.47 311.62 346.79 428.82 425.81 421.61 427.72 342.28 302.4 225.09 300.38 309.12 194.85 210.36 198.95 205.98 294.71 295.59 296.73 211.56 433.78 339.74 431.68 427.1 344.66 435.04"/><path d="M898.75,368.66A371.87,371.87,0,0,0,400.56,254.12L397.5,249A377.87,377.87,0,0,1,903.75,365.34Z"/><path d="M905.23,781.23l-5-3.3A372.57,372.57,0,0,0,953,498l5.88-1.22a380.5,380.5,0,0,1,8,77.57A376.16,376.16,0,0,1,905.23,781.23Z"/><path d="M589.16,826a249.87,249.87,0,0,1-96-19l2.3-5.54A245.66,245.66,0,1,0,488,350.64l-2.5-5.46A251.59,251.59,0,1,1,589.16,826Z"/><path d="M418,758.8a251.62,251.62,0,0,1-64.54-272.52l5.62,2.12a245.24,245.24,0,0,0,63,266Z"/><path d="M589.16,727.42c-84.38,0-153-68.65-153-153v-1.87h6v1.87c0,81.07,66,147,147,147s147-66,147-147-66-147-147-147c-4,0-7.95.16-11.73.46l-.48-6c3.94-.32,8-.48,12.21-.48,84.39,0,153,68.65,153,153S673.55,727.42,589.16,727.42Z"/><path d="M589.21,635.51a62.2,62.2,0,1,1,62.19-62.2A62.27,62.27,0,0,1,589.21,635.51Zm0-118.39a56.2,56.2,0,1,0,56.19,56.19A56.26,56.26,0,0,0,589.21,517.12Z"/><path class="cls-3" d="M858.58,431.93a70.71,70.71,0,1,0,70.71-70.71,70.71,70.71,0,0,0-70.71,70.71Z"/><path d="M929.29,505.64A73.71,73.71,0,1,1,1003,431.93,73.79,73.79,0,0,1,929.29,505.64Zm0-141.42A67.71,67.71,0,1,0,997,431.93,67.78,67.78,0,0,0,929.29,364.22Z"/><path class="cls-3" d="M413.61,779.58a44.09,44.09,0,1,0,44.09-44.09,44.08,44.08,0,0,0-44.09,44.09Z"/><path d="M457.7,826.67a47.09,47.09,0,1,1,47.08-47.09A47.14,47.14,0,0,1,457.7,826.67Zm0-88.18a41.09,41.09,0,1,0,41.08,41.09A41.13,41.13,0,0,0,457.7,738.49Z"/><path d="M589.17,952A377.75,377.75,0,0,1,251.66,404.85l5.36,2.7A371.52,371.52,0,0,0,589.17,946,371.25,371.25,0,0,0,835.49,852.7l2-1.81,97.71,91.63-4.11,4.38L837.41,859A377.29,377.29,0,0,1,589.17,952Z"/><polygon points="901.89 949.01 901.92 943 931.5 943.14 929.47 913.62 935.47 913.22 937.92 949.17 901.89 949.01"/></g></svg>