<svg xmlns="http://www.w3.org/2000/svg" viewBox="0 0 1200 1200"><defs><style>.cls-1{fill:none;}.cls-2{fill:#61e1dd;}.cls-3{fill:#fff;}.cls-4{fill:#fffa38;}</style></defs><g id="backgrounds"><rect class="cls-1" width="1200" height="1200"/></g><g id="illustrations"><rect x="150" y="576.96" width="87.5" height="6"/><rect x="305.01" y="576.96" width="234.83" height="6"/><rect x="599.84" y="424.86" width="6" height="92.1"/><rect x="599.84" y="217.51" width="6" height="149.41"/><polygon points="599.84 954.76 599.84 869.92 605.84 869.92 605.84 954.75 599.84 954.76"/><rect x="599.84" y="642.97" width="6" height="169.01"/><polygon points="555.9 537.73 445.67 427.5 449.91 423.26 560.18 533.53 558.07 535.66 555.9 537.73"/><rect x="375.7" y="341.98" width="6" height="28.61" transform="translate(-141.01 372.13) rotate(-45)"/><rect x="480.62" y="653.32" width="90.69" height="6" transform="translate(-310.03 564.14) rotate(-45)"/><rect x="351.11" y="768.53" width="119.3" height="6" transform="translate(-425.25 516.42) rotate(-45)"/><circle class="cls-2" cx="602.84" cy="183.76" r="33.76"/><path d="M602.84,220.51a36.76,36.76,0,1,1,36.76-36.75A36.8,36.8,0,0,1,602.84,220.51Zm0-67.51a30.76,30.76,0,1,0,30.76,30.76A30.79,30.79,0,0,0,602.84,153Z"/><circle class="cls-2" cx="602.84" cy="1002.76" r="48.01"/><path d="M602.84,1053.78a51,51,0,1,1,51-51A51.07,51.07,0,0,1,602.84,1053.78Zm0-96a45,45,0,1,0,45,45A45.06,45.06,0,0,0,602.84,957.75Z"/><path d="M275.94,546.55l-6-.6a334.65,334.65,0,0,1,646.65-82.37L911,465.66a328.65,328.65,0,0,0-635.06,80.89Z"/><path d="M602.84,914.55A334.62,334.62,0,0,1,270,614l6-.6A328.66,328.66,0,0,0,911,694.27l5.62,2.08a334.7,334.7,0,0,1-313.78,218.2Z"/><path d="M602.84,767.51a186.12,186.12,0,0,1-110.48-36l3.54-4.84a181.62,181.62,0,0,0,278.06-86l5.66,2A187.91,187.91,0,0,1,602.84,767.51Z"/><path d="M450.84,689.83A187.58,187.58,0,0,1,573.46,394.72l.94,5.92A181.57,181.57,0,0,0,455.7,686.31Z"/><path d="M774,519.19A181.25,181.25,0,0,0,631.28,400.63l.94-5.92a187.25,187.25,0,0,1,147.4,122.48Z"/><path d="M845.21,491.37A258.08,258.08,0,0,0,451.55,371L448,366.12A264.09,264.09,0,0,1,850.85,489.31Z"/><path d="M573.59,842.34a264,264,0,0,1-185-416.65l4.86,3.52A258,258,0,0,0,574.25,836.38Z"/><path d="M632.09,842.35l-.66-6A258.24,258.24,0,0,0,845.21,668.56l5.64,2.06A264.24,264.24,0,0,1,632.09,842.35Z"/><path d="M602.84,767.51a186.12,186.12,0,0,1-110.48-36l3.54-4.84a181.62,181.62,0,0,0,278.06-86l5.66,2A187.91,187.91,0,0,1,602.84,767.51Z"/><path d="M450.84,689.83A187.58,187.58,0,0,1,573.46,394.72l.94,5.92A181.57,181.57,0,0,0,455.7,686.31Z"/><path d="M774,519.19A181.25,181.25,0,0,0,631.28,400.63l.94-5.92a187.25,187.25,0,0,1,147.4,122.48Z"/><circle class="cls-3" cx="418.3" cy="395.89" r="41.7"/><path d="M418.3,440.59a44.7,44.7,0,1,1,44.7-44.7A44.75,44.75,0,0,1,418.3,440.59Zm0-83.4a38.7,38.7,0,1,0,38.7,38.7A38.74,38.74,0,0,0,418.3,357.19Z"/><circle class="cls-4" cx="602.84" cy="395.89" r="28.97"/><path d="M602.84,427.86a32,32,0,1,1,32-32A32,32,0,0,1,602.84,427.86Zm0-57.94a26,26,0,1,0,26,26A26,26,0,0,0,602.84,369.92Z"/><circle class="cls-4" cx="320.98" cy="861.31" r="28.97"/><path d="M321,893.28a32,32,0,1,1,32-32A32,32,0,0,1,321,893.28Zm0-57.93a26,26,0,1,0,26,26A26,26,0,0,0,321,835.35Z"/><circle class="cls-3" cx="602.84" cy="840.95" r="28.97"/><path d="M602.84,872.92a32,32,0,1,1,32-32A32,32,0,0,1,602.84,872.92Zm0-57.94a26,26,0,1,0,26,26A26,26,0,0,0,602.84,815Z"/><circle class="cls-2" cx="473.42" cy="708.87" r="28.97"/><path d="M473.42,740.84a32,32,0,1,1,32-32A32,32,0,0,1,473.42,740.84Zm0-57.94a26,26,0,1,0,26,26A26,26,0,0,0,473.42,682.9Z"/><circle class="cls-2" cx="305.01" cy="282.61" r="28.97"/><circle class="cls-2" cx="305.01" cy="282.61" r="28.97"/><path d="M305,314.57a32,32,0,1,1,32-32A32,32,0,0,1,305,314.57Zm0-57.93a26,26,0,1,0,26,26A26,26,0,0,0,305,256.64Z"/><circle class="cls-4" cx="271.26" cy="579.96" r="33.76"/><path d="M271.26,616.72A36.76,36.76,0,1,1,308,580,36.8,36.8,0,0,1,271.26,616.72Zm0-67.51A30.76,30.76,0,1,0,302,580,30.79,30.79,0,0,0,271.26,549.21Z"/><rect x="665.85" y="576.96" width="377.64" height="6"/><polygon points="1023.61 604.5 1019.52 600.11 1041.19 579.97 1019.52 559.83 1023.61 555.43 1050 579.97 1023.61 604.5"/><path class="cls-4" d="M665.85,580a63,63,0,1,1-63-63,63,63,0,0,1,63,63"/><path d="M602.84,646a66,66,0,1,1,66-66A66.08,66.08,0,0,1,602.84,646Zm0-126a60,60,0,1,0,60,60A60.07,60.07,0,0,0,602.84,520Z"/></g></svg>