<svg enable-background="new 0 -0.192 170 30" viewBox="0 -.192 170 30" xmlns="http://www.w3.org/2000/svg">
  <g fill="#0014D2">
    <g scale="">
    <path d="m31.16 26.023-1.734 1.746-1.686-1.734-.909-2.698-2.583-.891-.005-1.68-1.68.005-.886 4.263.909 2.758-3.954 1.752-1.206-1.735.834-1.744-.006-1.86-2.58.009-3.408 3.611-2.582-.831-.013-3.6-4.502-.706-3.234 1.751-1.923-.834-.012-3.659 1.737-.847 6.889-3.442 1.022.837 2.573-2.588-.006-1.681 3.408-3.431 1.729-3.666 2.565-4.268 4.258-.854 1.74-.006.005 1.68 3.432 3.409.011 3.66 5.358 5.083 5.171 3.462 2.582.832.909 2.577 3.426 1.67-1.735 1.744-1.679.006-.006-1.739-2.583-.833-4.334-4.245-3.426-1.729-3.677-5.147-1.685-1.676.831-2.762-2.589-2.572-1.735 1.685.012 3.661-1.674 1.686 3.431 3.408-1.734 1.745 3.491 3.409.006 1.74 1.691 3.414 1.74-.005 1.914-1.746-.902-.837-1.029-2.577 1.92-.006 1.691 3.415 1.746 1.734z"/>
    </g>
    <g transform="translate(54,-71), scale(2.405)">
    <path d="m.064 39.565-.03-9.12 1.917-.846.033 9.961z"/>
    <path d="m9.904 39.533c-1.92.006-1.92.006-1.92.006-.014-3.961-.014-3.961-.014-3.961-.004-1.199-.484-1.558-1.204-1.556-.84.003-1.199.365-1.195 1.564.013 3.96.013 3.96.013 3.96-1.859.006-1.859.006-1.859.006-.025-7.259-.025-7.259-.025-7.259 1.86-.006 1.86-.006 1.86-.006.002.54.002.54.002.54.358-.361.837-.663 1.737-.666 1.68-.006 2.584 1.191 2.591 3.231"/>
    <path d="m17.62 32.247c-2.556 7.27-2.556 7.27-2.556 7.27-1.92.006-1.92.006-1.92.006-2.604-7.252-2.604-7.252-2.604-7.252 2.101-.007 2.101-.007 2.101-.007 1.03 3.296 1.03 3.296 1.03 3.296.183.66.305 1.38.485 1.679-.001-.3.178-1.021.354-1.682 1.01-3.303 1.01-3.303 1.01-3.303"/>
    <path d="m22.789 34.991c-.182-.66-.544-1.198-1.384-1.196-.9.003-1.378.544-1.556 1.206m1.755 4.613c-2.101.007-3.665-1.488-3.672-3.768-.008-2.221 1.547-3.726 3.467-3.732 2.04-.006 3.246 1.67 3.253 3.71.001.359.001.359.002.72-4.8.016-4.8.016-4.8.016.183.839 1.024 1.197 1.744 1.194.3-.001 1.02-.184 1.378-.544 1.324 1.076 1.324 1.076 1.324 1.076-.656 1.022-2.035 1.326-2.696 1.328z"/>
    <path d="m28.799 37.911c.66-.002 1.02-.183 1.019-.543-.002-.479-.662-.658-1.022-.657-1.381-.355-3.122-.53-3.128-2.389-.004-1.38 1.373-2.226 2.933-2.23 1.021-.003 2.041.294 2.764.832-1.016 1.383-1.016 1.383-1.016 1.383-.541-.358-1.202-.536-1.742-.534-.84.002-1.02.183-1.019.543.001.3 1.021.476 1.563.655 1.381.355 2.582.711 2.587 2.211.006 1.56-1.552 2.404-3.112 2.41-1.2.004-2.221-.472-3.123-1.009 1.076-1.204 1.076-1.204 1.076-1.204.659.357 1.38.535 2.22.532"/>
    <path d="m36.346 33.926c-1.02.003-1.857.846-1.854 1.866.003 1.08.847 1.917 1.866 1.914.72-.002 1.198-.364 1.557-.845 1.564 1.194 1.564 1.194 1.564 1.194-.717.843-1.915 1.506-3.115 1.51-2.04.006-3.785-1.667-3.792-3.767-.007-2.04 1.728-3.726 3.768-3.733 1.2-.004 2.402.652 3.125 1.49-1.557 1.205-1.557 1.205-1.557 1.205-.361-.477-.843-.836-1.562-.834"/>
    <path d="m45.472 35.757c-.003-1.021-.726-1.858-1.746-1.855-1.2.004-1.856.846-1.854 1.867.004 1.08.666 1.917 1.866 1.914 1.021-.004 1.738-.846 1.734-1.926m1.86-.007c.007 2.1-1.487 3.784-3.588 3.791-2.04.007-3.785-1.667-3.792-3.767-.007-2.04 1.728-3.727 3.768-3.733 2.1-.006 3.605 1.669 3.612 3.709z"/>
  </g>
  </g></svg>
