<?xml version="1.0" encoding="utf-8"?>
<svg version="1.1" xmlns="http://www.w3.org/2000/svg" xmlns:xlink="http://www.w3.org/1999/xlink" x="0px" y="0px"
	 viewBox="15 0 383.96 98.7" style="enable-background:new 0 0 383.96 98.7;" xml:space="preserve">
<style type="text/css">
	.st0{fill:#A12B2A;}
	.st1{fill:#FFFFFF;}
</style>
<g>
	<g>
		<g>
			<path d="M336.69,14.4v34.67h3.83V33.12h3.4l15.95,15.95h5.32L347.75,31.2l15.74-16.8h-5.32l-14.25,15.32h-3.4V14.4L336.69,14.4z
				 M282.87,14.4l-12.76,34.67h4.04l2.55-7.45h17.44l2.98,7.45h4.04l-13.4-34.67H282.87z M278.19,38.65l7.45-20.85l7.87,20.85
				H278.19z M247.56,14.4v34.67h21.7v-3.4h-17.44V14.4H247.56z M330.74,27.16v-1.91c0-2.55-0.43-5.53-2.34-7.45
				c-2.34-2.55-5.96-2.55-8.93-2.55h-2.55h-3.83c-2.98,0-4.89,0.43-7.45,2.55c-1.49,1.49-2.55,4.47-2.55,8.3v4.04v4.25v4.25
				c0,3.83,1.06,6.81,2.55,8.3c2.55,2.34,4.47,2.55,7.45,2.55h3.83h2.55c2.98,0,6.81,0,8.93-2.55c1.91-1.91,2.34-4.89,2.34-7.45
				v-1.91h-3.83c0,1.06,0,2.55,0,4.04c0,1.06-0.43,2.55-1.06,2.98c-0.85,0.85-2.34,1.06-4.04,1.49c-1.49,0-2.98,0-4.89,0
				c-0.85,0-1.49,0-2.34,0c-1.91,0-3.83,0-5.32-1.49c-1.06-1.06-1.91-2.98-1.91-8.3v-1.91v-4.25v-1.91c0-5.32,0.85-7.02,1.91-8.3
				c1.49-1.49,3.4-1.49,5.32-1.49c0.85,0,1.49,0,2.34,0c1.91,0,3.4,0,4.89,0c1.91,0.43,3.4,0.85,4.04,1.49
				c0.85,0.43,1.06,1.91,1.06,2.98c0,1.49,0,2.98,0,4.04h3.83V27.16z M237.35,31.2c2.55-1.06,4.47-2.55,4.47-8.3
				c0-5.32-1.91-8.51-7.45-8.51h-18.29v34.89h18.72c5.96,0,7.87-4.04,7.87-8.51C242.46,36.52,242.46,32.48,237.35,31.2z
				 M220.12,17.16h13.83c4.04,0,4.89,3.4,4.89,6.38c0,2.55,0.43,5.96-5.53,5.96h-12.98V17.16H220.12z M233.1,45.46h-12.98V33.12
				h13.83c4.04,0,4.89,3.4,4.89,6.38C238.84,42.05,239.05,45.46,233.1,45.46z"/>
			<path class="st0" d="M199.06,49.07c2.34,0,4.04-0.43,5.53-1.49c4.47-2.55,5.32-7.87,5.32-12.34V27.8c0-3.4-0.43-6.38-1.49-8.51
				c-1.91-2.55-4.47-4.89-10-4.89h-16.8v34.67L199.06,49.07z M198,45.67h-12.76V18.02h13.83c5.53,0,7.02,4.89,7.02,8.93v7.87
				c0,2.55,0,6.81-1.91,8.93C203.1,44.82,200.98,45.67,198,45.67 M153.54,49.07h22.34v-3.4h-18.29V32.91h17.44v-3.4h-17.44V17.59
				h18.29v-3.4h-22.34V49.07z M142.48,33.76c2.34-0.43,3.83-1.06,4.47-2.34c1.06-1.91,1.49-4.47,1.49-6.38
				c0-2.98-0.43-5.96-1.91-7.87c-1.91-2.34-5.32-2.98-8.3-2.98h-16.8v34.67h3.83V35.03h12.34c1.91,0,3.83,0.43,4.89,1.49
				c1.06,1.06,1.06,2.98,1.06,4.89v7.45h4.47V39.5C148.01,36.31,145.88,34.18,142.48,33.76z M138.44,31.2L138.44,31.2h-0.43h-12.34
				V17.38h12.34h0.43l0,0c2.13,0,3.83,0,4.89,1.49c1.06,1.06,1.06,3.4,1.06,4.89v1.06c0,1.49,0,3.83-1.06,4.89
				C142.05,30.99,140.35,31.2,138.44,31.2z"/>
		</g>
		<g>
			<path class="st1" d="M22.72,41.89v38.08h4.89V43.38c0,0,0-2.98,2.98-2.98h19.36v-5.32H29.52C29.52,35.08,22.72,34.66,22.72,41.89
				z"/>
			<path class="st1" d="M62.71,79.75H87.6c0,0,6.81,0.43,6.81-6.81V41.89c0-7.02-6.81-6.81-6.81-6.81H61.65V12.75h-4.89v61.48
				C56.75,77.2,59.31,79.75,62.71,79.75z M61.65,40.4h24.68c2.98,0,2.98,2.98,2.98,2.98v28.72c0,2.98-2.98,2.98-2.98,2.98h-21.7
				c-2.98,0-2.98-2.98-2.98-2.98V40.4z"/>
			<path d="M95.04,12.75h-33.4l0,0v22.76h26.16c0,0,6.81-0.43,6.81,6.81v31.27c0,7.02-6.81,6.81-6.81,6.81h-25.1
				c-3.4,0-5.96-2.55-5.96-5.96V12.75l0,0h-5.32l0,0H21.65c-3.4,0-5.96,2.34-5.96,5.32v63.39c0,2.98,2.55,5.53,5.96,5.53h73.39
				c3.4,0,5.96-2.55,5.96-5.53V18.06C101,15.09,98.45,12.75,95.04,12.75z M49.95,40.4H31.01c-2.98,0-2.98,2.98-2.98,2.98v36.59
				h-5.32V41.89c0-7.02,6.81-6.81,6.81-6.81h20.42V40.4z"/>
			<path class="st0" d="M64.62,75.07h21.7c0,0,2.98,0,2.98-2.98V43.38c0,0,0-2.98-2.98-2.98H61.65v31.7
				C61.65,72.09,61.65,75.07,64.62,75.07z"/>
		</g>
	</g>
	<g>
		<g>
			<g>
				<g>
					<g>
						<path d="M130,77.98l-0.17-1.52h-0.07c-0.67,0.95-1.97,1.8-3.7,1.8c-2.45,0-3.7-1.72-3.7-3.47c0-2.92,2.6-4.52,7.27-4.5v-0.25
							c0-1-0.28-2.8-2.75-2.8c-1.12,0-2.3,0.35-3.15,0.9l-0.5-1.45c1-0.65,2.45-1.08,3.97-1.08c3.7,0,4.6,2.52,4.6,4.95v4.52
							c0,1.05,0.05,2.07,0.2,2.9H130z M129.67,71.8c-2.4-0.05-5.12,0.38-5.12,2.72c0,1.42,0.95,2.1,2.07,2.1
							c1.58,0,2.57-1,2.92-2.02c0.08-0.22,0.12-0.47,0.12-0.7V71.8z"/>
						<path d="M135.35,69.15c0-1.25-0.02-2.27-0.1-3.27h1.95l0.12,2h0.05c0.6-1.15,2-2.27,4-2.27c1.67,0,4.27,1,4.27,5.15v7.22h-2.2
							V71c0-1.95-0.73-3.57-2.8-3.57c-1.45,0-2.57,1.03-2.95,2.25c-0.1,0.27-0.15,0.65-0.15,1.02v7.27h-2.2V69.15z"/>
					</g>
				</g>
				<g>
					<g>
						<path d="M243.08,75.73c0.65,0.42,1.8,0.87,2.9,0.87c1.6,0,2.35-0.8,2.35-1.8c0-1.05-0.62-1.62-2.25-2.22
							c-2.17-0.78-3.2-1.97-3.2-3.42c0-1.95,1.58-3.55,4.17-3.55c1.22,0,2.3,0.35,2.97,0.75l-0.55,1.6c-0.47-0.3-1.35-0.7-2.47-0.7
							c-1.3,0-2.02,0.75-2.02,1.65c0,1,0.73,1.45,2.3,2.05c2.1,0.8,3.17,1.85,3.17,3.65c0,2.12-1.65,3.62-4.52,3.62
							c-1.33,0-2.55-0.33-3.4-0.83L243.08,75.73z"/>
						<path d="M264.22,71.83c0,4.47-3.1,6.42-6.02,6.42c-3.27,0-5.8-2.4-5.8-6.22c0-4.05,2.65-6.42,6-6.42
							C261.88,65.61,264.22,68.13,264.22,71.83z M254.63,71.95c0,2.65,1.53,4.65,3.67,4.65c2.1,0,3.67-1.97,3.67-4.7
							c0-2.05-1.02-4.65-3.62-4.65S254.63,69.65,254.63,71.95z"/>
						<path d="M267,60.23h2.2v17.75H267V60.23z"/>
						<path d="M283.02,74.68c0,1.25,0.02,2.35,0.1,3.3h-1.95L281.05,76H281c-0.58,0.97-1.85,2.25-4,2.25c-1.9,0-4.17-1.05-4.17-5.3
							v-7.07h2.2v6.7c0,2.3,0.7,3.85,2.7,3.85c1.47,0,2.5-1.02,2.9-2c0.12-0.33,0.2-0.73,0.2-1.12v-7.42h2.2V74.68z"/>
						<path d="M289.32,62.41v3.47h3.15v1.67h-3.15v6.52c0,1.5,0.42,2.35,1.65,2.35c0.58,0,1-0.08,1.28-0.15l0.1,1.65
							c-0.42,0.17-1.1,0.3-1.95,0.3c-1.03,0-1.85-0.33-2.38-0.92c-0.62-0.65-0.85-1.72-0.85-3.15v-6.6h-1.87v-1.67h1.87v-2.9
							L289.32,62.41z"/>
						<path d="M297.4,62.48c0.02,0.75-0.53,1.35-1.4,1.35c-0.77,0-1.32-0.6-1.32-1.35c0-0.78,0.57-1.38,1.37-1.38
							C296.87,61.11,297.4,61.71,297.4,62.48z M294.95,77.98v-12.1h2.2v12.1H294.95z"/>
						<path d="M311.75,71.83c0,4.47-3.1,6.42-6.02,6.42c-3.27,0-5.8-2.4-5.8-6.22c0-4.05,2.65-6.42,6-6.42
							C309.4,65.61,311.75,68.13,311.75,71.83z M302.15,71.95c0,2.65,1.53,4.65,3.67,4.65c2.1,0,3.67-1.97,3.67-4.7
							c0-2.05-1.02-4.65-3.62-4.65S302.15,69.65,302.15,71.95z"/>
						<path d="M314.52,69.15c0-1.25-0.02-2.27-0.1-3.27h1.95l0.12,2h0.05c0.6-1.15,2-2.27,4-2.27c1.67,0,4.27,1,4.27,5.15v7.22h-2.2
							V71c0-1.95-0.72-3.57-2.8-3.57c-1.45,0-2.57,1.03-2.95,2.25c-0.1,0.27-0.15,0.65-0.15,1.02v7.27h-2.2V69.15z"/>
					</g>
				</g>
				<g>
					<g>
						<path d="M154.4,65.65h2.03v12.18h-2.03V65.65z M155.42,60.67c0.79,0,1.45,0.63,1.45,1.45c0,0.79-0.66,1.45-1.45,1.45
							c-0.81,0-1.45-0.66-1.45-1.45C153.97,61.31,154.6,60.67,155.42,60.67 M159.17,77.83h2.03v-6.55c0-2.56,1.37-4.16,3.43-4.16
							c1.9,0,2.82,1.07,2.82,3.2v7.51h2.03v-7.94c0-2.84-1.57-4.62-4.24-4.62c-1.83,0-3.17,0.76-4.03,1.93v-1.55h-2.03V77.83z
							 M170.76,67.47h2.33v6.14c0,2.87,1.75,4.59,4.57,4.59c2.46,0,4.39-1.83,4.24-4.77l-1.98-0.18c0.1,1.85-0.81,3.07-2.33,3.07
							c-1.52,0-2.46-0.91-2.46-2.66v-6.19h6.37v-1.83h-6.37v-3.7h-2.03v3.7h-2.33V67.47z M192.58,70.29
							c-0.05-1.83-1.42-3.2-3.48-3.2c-2,0-3.45,1.32-3.91,3.2H192.58z M189.1,65.29c3.3,0,5.43,2.33,5.43,5.68v1.04h-9.44
							c0.18,2.64,1.8,4.34,4.19,4.34c1.88,0,3.37-1.19,3.65-3.1l1.93,0.35c-0.38,2.69-2.69,4.59-5.58,4.59
							c-3.7,0-6.14-2.74-6.14-6.45C183.14,68.11,185.5,65.29,189.1,65.29 M196.89,77.83h2.03V60.06h-2.03V77.83z M201.65,77.83h2.03
							V60.06h-2.03V77.83z M206.44,65.65h2.03v12.18h-2.03V65.65z M207.45,60.67c0.79,0,1.45,0.63,1.45,1.45
							c0,0.79-0.66,1.45-1.45,1.45c-0.81,0-1.45-0.66-1.45-1.45C206.01,61.31,206.64,60.67,207.45,60.67 M210.13,67.47h2.31v10.35
							h2.03V67.47h3.45v-1.83h-3.45v-1.32c0-1.67,1.04-2.77,2.59-2.77c1.37,0,2.28,0.89,2.28,2.31v13.96h2.03V63.72
							c0.03-2.46-1.83-4.06-4.31-4.06c-2.77,0-4.62,1.98-4.62,4.72v1.27h-2.31V67.47z M229.88,76.25c2.46,0,4.24-1.88,4.24-4.49
							c0-2.61-1.78-4.54-4.24-4.54c-2.46,0-4.24,1.93-4.24,4.54C225.64,74.35,227.39,76.25,229.88,76.25 M229.91,65.27
							c3.7,0,6.24,2.87,6.24,6.5c0,3.63-2.54,6.45-6.24,6.45c-3.76,0-6.29-2.82-6.29-6.45C223.61,68.13,226.15,65.27,229.91,65.27"
							/>
					</g>
				</g>
			</g>
		</g>
	</g>
</g>
</svg>
